<svg width="432" height="212" viewBox="0 0 432 212" fill="none" xmlns="http://www.w3.org/2000/svg">
<g filter="url(#filter0_d_106_126)">
<path d="M186.743 55.192C185.89 55.192 185.463 54.936 185.463 54.424C185.463 53.9973 185.954 53.6133 186.935 53.272C187.575 53.0587 188.173 52.8027 188.727 52.504C189.282 52.2053 189.559 51.608 189.559 50.712V19.16C189.559 18.008 189.389 17.0053 189.047 16.152C188.706 15.256 187.981 14.7227 186.871 14.552C186.487 14.4667 186.295 14.1467 186.295 13.592C186.295 13.1653 186.466 12.888 186.807 12.76C187.533 12.5467 188.386 12.2907 189.367 11.992C190.391 11.6933 191.394 11.3733 192.375 11.032C193.357 10.648 194.189 10.3067 194.871 10.008C195.127 9.92266 195.319 9.88 195.447 9.88C195.618 9.88 195.746 9.944 195.831 10.072C195.917 10.1573 195.959 10.2853 195.959 10.456C195.959 10.6693 195.917 11.0107 195.831 11.48C195.746 11.9067 195.661 12.6107 195.575 13.592C195.49 14.5307 195.447 15.8747 195.447 17.624V30.04C195.447 30.6373 195.469 31.1067 195.511 31.448C195.597 31.7467 195.703 32.0027 195.831 32.216C196.514 31.704 197.325 31.128 198.263 30.488C199.245 29.848 200.333 29.2933 201.527 28.824C202.765 28.3547 204.066 28.12 205.431 28.12C207.607 28.12 209.399 28.9307 210.807 30.552C212.258 32.1733 212.983 34.3067 212.983 36.952V50.584C212.983 51.4373 213.239 52.056 213.751 52.44C214.306 52.7813 214.903 53.0587 215.543 53.272C215.97 53.4427 216.311 53.6133 216.567 53.784C216.823 53.912 216.951 54.1253 216.951 54.424C216.951 54.936 216.503 55.192 215.607 55.192C214.711 55.192 214.007 55.1493 213.495 55.064C212.983 55.0213 212.493 54.9787 212.023 54.936C211.554 54.8933 210.914 54.872 210.103 54.872C209.293 54.872 208.653 54.8933 208.183 54.936C207.757 54.9787 207.287 55.0213 206.775 55.064C206.306 55.1493 205.602 55.192 204.663 55.192C203.767 55.192 203.319 54.936 203.319 54.424C203.319 54.0827 203.447 53.848 203.703 53.72C203.959 53.592 204.301 53.4427 204.727 53.272C205.325 53.1013 205.879 52.824 206.391 52.44C206.903 52.056 207.159 51.416 207.159 50.52V37.592C207.159 36.568 206.882 35.6507 206.327 34.84C205.773 33.9867 205.09 33.3253 204.279 32.856C203.511 32.3867 202.701 32.152 201.847 32.152C201.079 32.152 200.205 32.2587 199.223 32.472C198.285 32.6853 197.495 33.048 196.855 33.56C196.301 33.9867 195.917 34.456 195.703 34.968C195.533 35.4373 195.447 36.2267 195.447 37.336V50.712C195.49 51.5653 195.746 52.1627 196.215 52.504C196.685 52.8027 197.218 53.0587 197.815 53.272C198.242 53.4 198.583 53.5493 198.839 53.72C199.095 53.8907 199.223 54.1253 199.223 54.424C199.223 54.936 198.797 55.192 197.943 55.192C197.09 55.192 196.386 55.1493 195.831 55.064C195.319 55.0213 194.807 54.9787 194.295 54.936C193.826 54.8933 193.207 54.872 192.439 54.872C191.714 54.872 191.074 54.8933 190.519 54.936C190.007 54.9787 189.453 55.0213 188.855 55.064C188.301 55.1493 187.597 55.192 186.743 55.192ZM219.719 55.192C219.378 55.192 219.079 55.128 218.823 55C218.61 54.872 218.503 54.68 218.503 54.424C218.503 54.0827 218.631 53.848 218.887 53.72C219.186 53.5493 219.506 53.4213 219.847 53.336C220.829 53.08 221.554 52.8027 222.023 52.504C222.493 52.2053 222.727 51.672 222.727 50.904V37.08C222.727 35.8 222.514 34.776 222.087 34.008C221.661 33.1973 220.914 32.7067 219.847 32.536C219.634 32.4933 219.463 32.408 219.335 32.28C219.25 32.1093 219.207 31.8747 219.207 31.576C219.207 31.064 219.399 30.7867 219.783 30.744C221.661 30.3173 223.261 29.7627 224.583 29.08C225.949 28.3547 226.973 27.7787 227.655 27.352C228.125 27.0533 228.466 26.904 228.679 26.904C229.021 26.904 229.191 27.0747 229.191 27.416C229.191 27.8853 229.127 28.632 228.999 29.656C228.914 30.68 228.807 31.7893 228.679 32.984C228.594 34.1787 228.551 35.288 228.551 36.312V50.904C228.551 51.5867 228.786 52.0987 229.255 52.44C229.725 52.7813 230.45 53.08 231.431 53.336C231.773 53.4213 232.071 53.5493 232.327 53.72C232.626 53.848 232.775 54.0827 232.775 54.424C232.775 54.936 232.391 55.192 231.623 55.192C230.813 55.192 230.087 55.1493 229.447 55.064C228.807 55.0213 228.189 54.9787 227.591 54.936C227.037 54.8933 226.375 54.872 225.607 54.872C224.882 54.872 224.221 54.8933 223.623 54.936C223.026 54.9787 222.429 55.0213 221.831 55.064C221.277 55.1493 220.573 55.192 219.719 55.192ZM225.479 22.488C224.413 22.488 223.495 22.1253 222.727 21.4C222.002 20.632 221.639 19.7147 221.639 18.648C221.639 17.5387 222.002 16.6213 222.727 15.896C223.495 15.128 224.413 14.744 225.479 14.744C226.589 14.744 227.527 15.128 228.295 15.896C229.063 16.6213 229.447 17.5387 229.447 18.648C229.447 19.7147 229.063 20.632 228.295 21.4C227.527 22.1253 226.589 22.488 225.479 22.488ZM235.188 64.792C234.334 64.792 233.908 64.5147 233.908 63.96C233.908 63.7467 233.993 63.5547 234.164 63.384C234.334 63.256 234.59 63.1707 234.932 63.128C235.956 62.872 236.916 62.488 237.812 61.976C238.708 61.464 239.433 60.76 239.988 59.864C240.585 59.0107 240.884 57.9227 240.884 56.6C240.884 56.0027 240.628 55.4053 240.116 54.808C239.646 54.2107 239.049 53.8693 238.324 53.784C237.47 53.656 236.766 53.336 236.212 52.824C235.7 52.2693 235.444 51.5867 235.444 50.776C235.444 49.8373 235.828 49.048 236.596 48.408C237.364 47.768 238.26 47.448 239.284 47.448C240.948 47.448 242.313 48.0453 243.38 49.24C244.446 50.4347 244.98 51.9493 244.98 53.784C244.98 55.448 244.66 56.9413 244.02 58.264C243.38 59.6293 242.548 60.8027 241.524 61.784C240.542 62.7653 239.476 63.512 238.324 64.024C237.214 64.536 236.169 64.792 235.188 64.792Z" fill="white"/>
</g>
<g filter="url(#filter1_d_106_126)">
<path d="M6.396 166.384C5.71334 166.384 5.116 166.256 4.604 166C4.17734 165.744 3.964 165.36 3.964 164.848C3.964 164.165 4.22 163.696 4.732 163.44C5.32934 163.099 5.96934 162.843 6.652 162.672C8.61467 162.16 10.0653 161.605 11.004 161.008C11.9427 160.411 12.412 159.344 12.412 157.808V130.16C12.412 127.6 11.9853 125.552 11.132 124.016C10.2787 122.395 8.78534 121.413 6.652 121.072C6.22534 120.987 5.884 120.816 5.628 120.56C5.45734 120.219 5.372 119.749 5.372 119.152C5.372 118.128 5.756 117.573 6.524 117.488C10.2787 116.635 13.4787 115.525 16.124 114.16C18.8547 112.709 20.9027 111.557 22.268 110.704C23.2067 110.107 23.8893 109.808 24.316 109.808C24.9987 109.808 25.34 110.149 25.34 110.832C25.34 111.771 25.212 113.264 24.956 115.312C24.7853 117.36 24.572 119.579 24.316 121.968C24.1453 124.357 24.06 126.576 24.06 128.624V157.808C24.06 159.173 24.5293 160.197 25.468 160.88C26.4067 161.563 27.8573 162.16 29.82 162.672C30.5027 162.843 31.1 163.099 31.612 163.44C32.2093 163.696 32.508 164.165 32.508 164.848C32.508 165.872 31.74 166.384 30.204 166.384C28.5827 166.384 27.132 166.299 25.852 166.128C24.572 166.043 23.3347 165.957 22.14 165.872C21.0307 165.787 19.708 165.744 18.172 165.744C16.7213 165.744 15.3987 165.787 14.204 165.872C13.0093 165.957 11.8147 166.043 10.62 166.128C9.51067 166.299 8.10267 166.384 6.396 166.384ZM17.916 100.976C15.7827 100.976 13.948 100.251 12.412 98.8C10.9613 97.264 10.236 95.4293 10.236 93.296C10.236 91.0773 10.9613 89.2427 12.412 87.792C13.948 86.256 15.7827 85.488 17.916 85.488C20.1347 85.488 22.012 86.256 23.548 87.792C25.084 89.2427 25.852 91.0773 25.852 93.296C25.852 95.4293 25.084 97.264 23.548 98.8C22.012 100.251 20.1347 100.976 17.916 100.976ZM39.253 112.24C37.5463 112.24 36.693 111.685 36.693 110.576C36.693 110.149 36.8637 109.808 37.205 109.552C37.5463 109.211 38.0583 108.997 38.741 108.912C40.789 108.4 42.709 107.632 44.501 106.608C46.293 105.584 47.7437 104.219 48.853 102.512C50.0477 100.72 50.645 98.5013 50.645 95.856C50.645 94.6613 50.133 93.4667 49.109 92.272C48.1703 91.0773 46.9757 90.3947 45.525 90.224C43.8183 89.968 42.4103 89.328 41.301 88.304C40.277 87.1947 39.765 85.8293 39.765 84.208C39.765 82.3307 40.533 80.752 42.069 79.472C43.605 78.192 45.397 77.552 47.445 77.552C50.773 77.552 53.5037 78.7467 55.637 81.136C57.7703 83.5253 58.837 86.5547 58.837 90.224C58.837 93.552 58.197 96.5813 56.917 99.312C55.637 101.957 53.973 104.261 51.925 106.224C49.9623 108.187 47.829 109.68 45.525 110.704C43.3063 111.728 41.2157 112.24 39.253 112.24ZM64.654 166.384C63.9713 166.384 63.374 166.256 62.862 166C62.35 165.829 62.094 165.445 62.094 164.848C62.094 164.251 62.35 163.781 62.862 163.44C63.4593 163.099 64.1847 162.8 65.038 162.544C66.2327 162.117 67.3847 161.648 68.494 161.136C69.6887 160.539 70.286 159.387 70.286 157.68V129.52C70.286 127.387 70.03 125.552 69.518 124.016C69.006 122.395 67.7687 121.413 65.806 121.072C65.4647 120.987 65.166 120.816 64.91 120.56C64.654 120.304 64.526 119.877 64.526 119.28C64.526 118.256 64.91 117.659 65.678 117.488C67.8967 116.891 69.8593 116.251 71.566 115.568C73.2727 114.885 74.8513 114.16 76.302 113.392C77.7527 112.539 79.2887 111.643 80.91 110.704C81.0807 110.619 81.2513 110.533 81.422 110.448C81.678 110.277 81.934 110.192 82.19 110.192C82.7873 110.192 83.086 110.533 83.086 111.216C83.086 111.899 82.958 113.136 82.702 114.928C82.5313 116.635 82.446 118.085 82.446 119.28C82.446 120.133 82.5313 120.645 82.702 120.816H82.958C85.0913 118.683 87.7367 116.72 90.894 114.928C94.1367 113.136 98.0193 112.24 102.542 112.24C105.443 112.24 107.961 113.008 110.094 114.544C112.227 115.995 113.934 118.299 115.214 121.456H115.598C118.243 118.725 121.273 116.507 124.686 114.8C128.099 113.093 131.854 112.24 135.95 112.24C138.766 112.24 141.155 113.051 143.118 114.672C145.081 116.293 146.574 118.469 147.598 121.2C148.707 123.931 149.262 126.917 149.262 130.16V157.808C149.262 159.515 149.817 160.624 150.926 161.136C152.035 161.648 153.23 162.117 154.51 162.544C155.363 162.8 156.046 163.099 156.558 163.44C157.07 163.781 157.326 164.251 157.326 164.848C157.326 165.36 157.113 165.744 156.686 166C156.345 166.256 155.747 166.384 154.894 166.384C153.187 166.384 151.779 166.299 150.67 166.128C149.561 166.043 148.494 165.957 147.47 165.872C146.446 165.787 145.166 165.744 143.63 165.744C142.179 165.744 140.899 165.787 139.79 165.872C138.766 165.957 137.699 166.043 136.59 166.128C135.481 166.299 134.073 166.384 132.366 166.384C131.683 166.384 131.086 166.256 130.574 166C130.147 165.744 129.934 165.36 129.934 164.848C129.934 164.165 130.19 163.696 130.702 163.44C131.214 163.099 131.897 162.8 132.75 162.544C134.03 162.203 135.139 161.776 136.078 161.264C137.017 160.667 137.486 159.6 137.486 158.064V131.312C137.486 129.264 137.059 127.387 136.206 125.68C135.438 123.888 134.371 122.48 133.006 121.456C131.641 120.347 130.105 119.792 128.398 119.792C126.606 119.792 124.899 120.048 123.278 120.56C121.657 121.072 120.078 121.925 118.542 123.12C116.579 124.656 115.598 127.259 115.598 130.928V157.808C115.598 159.515 116.11 160.667 117.134 161.264C118.243 161.776 119.438 162.203 120.718 162.544C121.486 162.8 122.126 163.099 122.638 163.44C123.235 163.781 123.534 164.251 123.534 164.848C123.534 165.36 123.321 165.744 122.894 166C122.467 166.256 121.87 166.384 121.102 166.384C119.395 166.384 117.987 166.299 116.878 166.128C115.769 166.043 114.702 165.957 113.678 165.872C112.654 165.787 111.374 165.744 109.838 165.744C108.387 165.744 107.107 165.787 105.998 165.872C104.974 165.957 103.907 166.043 102.798 166.128C101.689 166.299 100.281 166.384 98.574 166.384C97.9767 166.384 97.422 166.256 96.91 166C96.398 165.744 96.142 165.36 96.142 164.848C96.142 164.165 96.4407 163.696 97.038 163.44C97.6353 163.099 98.2753 162.8 98.958 162.544C100.238 162.203 101.347 161.776 102.286 161.264C103.31 160.667 103.822 159.6 103.822 158.064V131.312C103.822 129.264 103.395 127.387 102.542 125.68C101.774 123.973 100.707 122.565 99.342 121.456C97.9767 120.347 96.4407 119.792 94.734 119.792C93.0273 119.792 91.3207 120.048 89.614 120.56C87.9927 121.072 86.414 121.925 84.878 123.12C83.0007 124.485 82.062 127.045 82.062 130.8V157.808C82.062 159.429 82.5313 160.539 83.47 161.136C84.4087 161.648 85.518 162.117 86.798 162.544C87.4807 162.8 88.1207 163.099 88.718 163.44C89.3153 163.696 89.614 164.165 89.614 164.848C89.614 165.36 89.358 165.744 88.846 166C88.4193 166.256 87.8647 166.384 87.182 166.384C85.4753 166.384 84.0673 166.299 82.958 166.128C81.8487 166.043 80.8247 165.957 79.886 165.872C78.9473 165.787 77.71 165.744 76.174 165.744C74.7233 165.744 73.4433 165.787 72.334 165.872C71.2247 165.957 70.0727 166.043 68.878 166.128C67.7687 166.299 66.3607 166.384 64.654 166.384ZM166.155 203.12C162.656 203.12 160.011 202.437 158.219 201.072C156.342 199.792 155.403 198.469 155.403 197.104C155.488 196.08 155.83 195.099 156.427 194.16C157.024 193.307 157.75 192.581 158.603 191.984C159.456 191.472 160.267 191.216 161.035 191.216C161.974 191.216 162.827 191.515 163.595 192.112C164.363 192.795 165.046 193.52 165.643 194.288C166.411 195.056 167.264 195.739 168.203 196.336C169.056 197.019 170.166 197.36 171.531 197.36C173.75 197.36 175.67 196.08 177.291 193.52C178.827 190.96 180.235 187.717 181.515 183.792L199.051 130.16C199.563 128.368 199.691 127.131 199.435 126.448C199.264 125.68 198.795 125.296 198.027 125.296C197.259 125.296 196.192 125.595 194.827 126.192C193.547 126.789 192.054 127.472 190.347 128.24C189.835 128.411 189.323 128.453 188.811 128.368C188.299 128.197 188.043 127.899 188.043 127.472C188.043 126.96 188.171 126.576 188.427 126.32C188.683 125.979 189.11 125.552 189.707 125.04C191.584 123.419 193.462 122.011 195.339 120.816C197.216 119.536 199.051 118.427 200.843 117.488C202.72 116.464 204.512 115.568 206.219 114.8C208.011 113.947 209.718 113.093 211.339 112.24C212.448 111.813 213.515 112.112 214.539 113.136C215.648 114.075 216.032 115.013 215.691 115.952C214.923 118 214.07 120.261 213.131 122.736C212.192 125.125 211.296 127.643 210.443 130.288L194.315 179.44C193.291 182.427 191.627 185.328 189.323 188.144C187.104 190.96 184.587 193.477 181.771 195.696C178.955 198 176.182 199.792 173.451 201.072C170.635 202.437 168.203 203.12 166.155 203.12ZM214.539 100.592C213.003 100.592 211.723 100.037 210.699 98.928C209.76 97.7333 209.291 96.368 209.291 94.832C209.291 92.528 210.102 90.48 211.723 88.688C213.344 86.8107 215.35 85.872 217.739 85.872C219.36 85.872 220.598 86.5547 221.451 87.92C222.39 89.2853 222.859 90.736 222.859 92.272C222.859 94.4053 222.048 96.3253 220.427 98.032C218.806 99.7387 216.843 100.592 214.539 100.592ZM224.564 167.792C222.943 167.792 221.535 167.195 220.34 166C219.145 164.891 218.548 163.739 218.548 162.544C218.548 162.203 218.591 161.861 218.676 161.52C218.761 161.093 218.889 160.667 219.06 160.24C222.217 153.755 224.948 147.568 227.252 141.68C229.556 135.707 231.647 130.331 233.524 125.552C233.865 124.699 233.652 124.272 232.884 124.272C232.457 124.272 231.647 124.485 230.452 124.912C229.343 125.339 228.148 125.936 226.868 126.704C225.673 127.387 224.607 128.069 223.668 128.752C222.985 129.179 222.388 129.307 221.876 129.136C221.449 128.88 221.236 128.496 221.236 127.984C221.236 127.472 221.62 126.747 222.388 125.808C223.241 124.869 224.351 123.803 225.716 122.608C227.167 121.413 228.788 120.176 230.58 118.896C232.372 117.616 234.207 116.421 236.084 115.312C238.047 114.117 239.967 113.136 241.844 112.368C242.783 111.941 243.721 112.027 244.66 112.624C245.684 113.136 246.452 113.861 246.964 114.8C247.561 115.653 247.732 116.379 247.476 116.976L232.372 153.456C232.116 153.968 231.903 154.523 231.732 155.12C231.647 155.632 231.604 156.101 231.604 156.528C231.604 157.04 231.775 157.381 232.116 157.552C232.543 157.723 232.927 157.808 233.268 157.808C234.292 157.808 235.572 157.296 237.108 156.272C238.729 155.163 240.393 153.84 242.1 152.304C243.892 150.683 245.513 149.147 246.964 147.696C247.135 147.44 247.305 147.312 247.476 147.312C247.732 147.312 247.988 147.44 248.244 147.696C248.5 147.867 248.628 148.123 248.628 148.464C248.628 149.829 247.775 151.621 246.068 153.84C244.361 155.973 242.228 158.107 239.668 160.24C237.108 162.373 234.463 164.165 231.732 165.616C229.087 167.067 226.697 167.792 224.564 167.792ZM249.524 100.72C247.988 100.72 246.708 100.165 245.684 99.056C244.745 97.8613 244.276 96.496 244.276 94.96C244.276 92.656 245.087 90.608 246.708 88.816C248.329 86.9387 250.335 86 252.724 86C254.345 86 255.583 86.6827 256.436 88.048C257.375 89.4133 257.844 90.864 257.844 92.4C257.844 94.5333 257.033 96.4533 255.412 98.16C253.791 99.8667 251.828 100.72 249.524 100.72ZM257.286 167.792C256.262 167.792 255.195 167.493 254.086 166.896C252.977 166.299 252.081 165.573 251.398 164.72C250.715 163.781 250.374 162.843 250.374 161.904C250.374 159.003 251.27 155.675 253.062 151.92C254.939 148.165 257.67 144.069 261.254 139.632C264.923 135.109 269.361 130.331 274.566 125.296C278.833 121.285 282.459 118.213 285.446 116.08C288.518 113.861 290.779 112.752 292.23 112.752C293.937 112.752 295.601 113.563 297.222 115.184C298.161 116.379 298.587 116.933 298.502 116.848C298.502 116.763 298.545 116.72 298.63 116.72C298.801 116.72 298.929 116.677 299.014 116.592C299.185 116.507 299.313 116.293 299.398 115.952C300.422 114.245 301.062 113.179 301.318 112.752C301.574 112.24 301.659 111.984 301.574 111.984C302.001 111.131 302.683 110.704 303.622 110.704C304.561 110.704 305.542 110.917 306.566 111.344C307.59 111.685 308.443 112.155 309.126 112.752C309.809 113.264 310.15 113.819 310.15 114.416C310.15 114.843 309.894 115.696 309.382 116.976L295.686 153.84C294.662 156.485 295.174 157.808 297.222 157.808C298.587 157.808 300.294 157.083 302.342 155.632C304.475 154.096 306.438 152.261 308.23 150.128C308.401 149.957 308.571 149.829 308.742 149.744C308.913 149.659 309.083 149.616 309.254 149.616C309.595 149.616 309.851 149.744 310.022 150C310.193 150.256 310.278 150.64 310.278 151.152C310.278 152.005 309.595 153.371 308.23 155.248C306.95 157.125 305.457 158.832 303.75 160.368C301.105 162.757 298.459 164.592 295.814 165.872C293.169 167.152 290.865 167.792 288.902 167.792C287.878 167.792 286.854 167.493 285.83 166.896C284.806 166.299 283.953 165.573 283.27 164.72C282.587 163.867 282.246 162.971 282.246 162.032C282.246 161.264 282.502 160.283 283.014 159.088C282.843 159.429 282.886 159.216 283.142 158.448C283.483 157.68 283.953 156.613 284.55 155.248C285.233 153.797 285.915 152.304 286.598 150.768C287.281 149.232 287.878 147.867 288.39 146.672C288.817 145.904 288.945 145.349 288.774 145.008C288.689 144.581 288.433 144.624 288.006 145.136C283.057 150.597 278.747 155.035 275.078 158.448C271.409 161.776 268.166 164.165 265.35 165.616C262.534 167.067 259.846 167.792 257.286 167.792ZM266.758 157.808C268.465 157.808 271.067 156.315 274.566 153.328C278.065 150.341 281.947 146.331 286.214 141.296C289.286 137.712 291.675 134.469 293.382 131.568C295.174 128.581 296.07 126.363 296.07 124.912C296.07 124.229 295.43 123.333 294.15 122.224C293.467 121.712 292.785 121.328 292.102 121.072C291.419 120.731 290.865 120.56 290.438 120.56C288.902 120.56 286.854 121.328 284.294 122.864C281.819 124.4 279.515 126.192 277.382 128.24C274.907 130.629 272.561 133.403 270.342 136.56C268.123 139.632 266.331 142.704 264.966 145.776C263.601 148.763 262.918 151.28 262.918 153.328C262.918 154.693 263.259 155.803 263.942 156.656C264.625 157.424 265.563 157.808 266.758 157.808ZM304.944 203.12C303.323 203.12 301.744 202.565 300.208 201.456C298.672 200.432 297.904 198.853 297.904 196.72C297.904 195.44 298.203 194.245 298.8 193.136C299.397 192.027 300.165 191.088 301.104 190.32C301.957 189.637 302.896 189.296 303.92 189.296C304.773 189.296 305.584 189.552 306.352 190.064C307.035 190.576 307.76 191.131 308.528 191.728C309.296 192.325 310.064 192.837 310.832 193.264C311.6 193.776 312.496 194.032 313.52 194.032C316.336 194.032 319.237 192.325 322.224 188.912C325.296 185.584 328.027 181.36 330.416 176.24C332.293 172.315 333.573 168.005 334.256 163.312C334.939 158.533 335.28 153.328 335.28 147.696C335.28 141.125 334.811 135.92 333.872 132.08C333.019 128.155 332.037 125.339 330.928 123.632C329.819 121.84 328.837 120.944 327.984 120.944C327.216 120.944 326.32 121.456 325.296 122.48C324.357 123.504 323.461 124.699 322.608 126.064C321.84 127.344 321.285 128.453 320.944 129.392C320.859 129.819 320.56 130.501 320.048 131.44C319.536 132.379 319.024 132.848 318.512 132.848C318.171 132.848 317.872 132.507 317.616 131.824C317.445 131.056 317.36 130.203 317.36 129.264C317.36 127.131 317.829 125.083 318.768 123.12C319.707 121.072 320.901 119.195 322.352 117.488C323.888 115.781 325.509 114.416 327.216 113.392C329.008 112.368 330.715 111.856 332.336 111.856C334.555 111.856 336.347 112.624 337.712 114.16C339.163 115.696 340.357 117.915 341.296 120.816C342.491 124.485 343.515 129.093 344.368 134.64C345.307 140.187 345.563 147.227 345.136 155.76C345.051 157.296 345.179 158.021 345.52 157.936C345.947 157.851 346.459 157.253 347.056 156.144C349.957 150.683 352.347 144.453 354.224 137.456C356.101 130.459 356.997 122.565 356.912 113.776C356.912 113.264 357.296 112.709 358.064 112.112C358.917 111.429 359.557 111.088 359.984 111.088C360.496 111.088 361.179 111.387 362.032 111.984C362.971 112.496 363.781 113.264 364.464 114.288C365.232 115.227 365.616 116.336 365.616 117.616C365.616 122.907 364.208 129.136 361.392 136.304C358.661 143.387 354.779 150.939 349.744 158.96C344.795 166.896 339.035 174.789 332.464 182.64C329.307 186.309 326.064 189.68 322.736 192.752C319.493 195.909 316.336 198.427 313.264 200.304C310.192 202.181 307.419 203.12 304.944 203.12ZM373.634 167.792C372.013 167.792 370.605 167.195 369.41 166C368.215 164.891 367.618 163.739 367.618 162.544C367.618 162.203 367.661 161.861 367.746 161.52C367.831 161.093 367.959 160.667 368.13 160.24C371.287 153.755 374.018 147.568 376.322 141.68C378.626 135.707 380.717 130.331 382.594 125.552C382.935 124.699 382.722 124.272 381.954 124.272C381.527 124.272 380.717 124.485 379.522 124.912C378.413 125.339 377.218 125.936 375.938 126.704C374.743 127.387 373.677 128.069 372.738 128.752C372.055 129.179 371.458 129.307 370.946 129.136C370.519 128.88 370.306 128.496 370.306 127.984C370.306 127.472 370.69 126.747 371.458 125.808C372.311 124.869 373.421 123.803 374.786 122.608C376.237 121.413 377.858 120.176 379.65 118.896C381.442 117.616 383.277 116.421 385.154 115.312C387.117 114.117 389.037 113.136 390.914 112.368C391.853 111.941 392.791 112.027 393.73 112.624C394.754 113.136 395.522 113.861 396.034 114.8C396.631 115.653 396.802 116.379 396.546 116.976L381.442 153.456C381.186 153.968 380.973 154.523 380.802 155.12C380.717 155.632 380.674 156.101 380.674 156.528C380.674 157.04 380.845 157.381 381.186 157.552C381.613 157.723 381.997 157.808 382.338 157.808C383.362 157.808 384.642 157.296 386.178 156.272C387.799 155.163 389.463 153.84 391.17 152.304C392.962 150.683 394.583 149.147 396.034 147.696C396.205 147.44 396.375 147.312 396.546 147.312C396.802 147.312 397.058 147.44 397.314 147.696C397.57 147.867 397.698 148.123 397.698 148.464C397.698 149.829 396.845 151.621 395.138 153.84C393.431 155.973 391.298 158.107 388.738 160.24C386.178 162.373 383.533 164.165 380.802 165.616C378.157 167.067 375.767 167.792 373.634 167.792ZM398.594 100.72C397.058 100.72 395.778 100.165 394.754 99.056C393.815 97.8613 393.346 96.496 393.346 94.96C393.346 92.656 394.157 90.608 395.778 88.816C397.399 86.9387 399.405 86 401.794 86C403.415 86 404.653 86.6827 405.506 88.048C406.445 89.4133 406.914 90.864 406.914 92.4C406.914 94.5333 406.103 96.4533 404.482 98.16C402.861 99.8667 400.898 100.72 398.594 100.72ZM408.02 168.56C406.143 168.56 404.564 167.835 403.284 166.384C402.004 164.933 401.364 163.269 401.364 161.392C401.364 159.6 401.833 157.979 402.772 156.528C403.711 154.992 404.905 153.797 406.356 152.944C407.807 152.005 409.428 151.536 411.22 151.536C413.268 151.536 414.889 152.304 416.084 153.84C417.364 155.376 418.004 157.083 418.004 158.96C418.004 160.667 417.535 162.245 416.596 163.696C415.743 165.147 414.548 166.299 413.012 167.152C411.561 168.091 409.897 168.56 408.02 168.56Z" fill="white"/>
</g>
<defs>
<filter id="filter0_d_106_126" x="182.263" y="8.67988" width="69.9165" height="65.3121" filterUnits="userSpaceOnUse" color-interpolation-filters="sRGB">
<feFlood flood-opacity="0" result="BackgroundImageFix"/>
<feColorMatrix in="SourceAlpha" type="matrix" values="0 0 0 0 0 0 0 0 0 0 0 0 0 0 0 0 0 0 127 0" result="hardAlpha"/>
<feOffset dx="2" dy="4"/>
<feGaussianBlur stdDeviation="2.6"/>
<feComposite in2="hardAlpha" operator="out"/>
<feColorMatrix type="matrix" values="0 0 0 0 1 0 0 0 0 1 0 0 0 0 1 0 0 0 0.25 0"/>
<feBlend mode="normal" in2="BackgroundImageFix" result="effect1_dropShadow_106_126"/>
<feBlend mode="normal" in="SourceGraphic" in2="effect1_dropShadow_106_126" result="shape"/>
</filter>
<filter id="filter1_d_106_126" x="1.96399" y="75.5518" width="424.04" height="135.568" filterUnits="userSpaceOnUse" color-interpolation-filters="sRGB">
<feFlood flood-opacity="0" result="BackgroundImageFix"/>
<feColorMatrix in="SourceAlpha" type="matrix" values="0 0 0 0 0 0 0 0 0 0 0 0 0 0 0 0 0 0 127 0" result="hardAlpha"/>
<feOffset dx="3" dy="3"/>
<feGaussianBlur stdDeviation="2.5"/>
<feComposite in2="hardAlpha" operator="out"/>
<feColorMatrix type="matrix" values="0 0 0 0 0.27493 0 0 0 0 0.347811 0 0 0 0 0.459936 0 0 0 1 0"/>
<feBlend mode="normal" in2="BackgroundImageFix" result="effect1_dropShadow_106_126"/>
<feBlend mode="normal" in="SourceGraphic" in2="effect1_dropShadow_106_126" result="shape"/>
</filter>
</defs>
</svg>
