<svg width="439" height="242" viewBox="0 0 439 242" fill="none" xmlns="http://www.w3.org/2000/svg">
<g filter="url(#filter0_d_119_419)">
<path d="M187.331 55.192C186.478 55.192 186.051 54.936 186.051 54.424C186.051 53.9973 186.542 53.6133 187.523 53.272C188.163 53.0587 188.761 52.8027 189.315 52.504C189.87 52.2053 190.147 51.608 190.147 50.712V19.16C190.147 18.008 189.977 17.0053 189.635 16.152C189.294 15.256 188.569 14.7227 187.459 14.552C187.075 14.4667 186.883 14.1467 186.883 13.592C186.883 13.1653 187.054 12.888 187.395 12.76C188.121 12.5467 188.974 12.2907 189.955 11.992C190.979 11.6933 191.982 11.3733 192.963 11.032C193.945 10.648 194.777 10.3067 195.459 10.008C195.715 9.92266 195.907 9.88 196.035 9.88C196.206 9.88 196.334 9.944 196.419 10.072C196.505 10.1573 196.547 10.2853 196.547 10.456C196.547 10.6693 196.505 11.0107 196.419 11.48C196.334 11.9067 196.249 12.6107 196.163 13.592C196.078 14.5307 196.035 15.8747 196.035 17.624V30.04C196.035 30.6373 196.057 31.1067 196.099 31.448C196.185 31.7467 196.291 32.0027 196.419 32.216C197.102 31.704 197.913 31.128 198.851 30.488C199.833 29.848 200.921 29.2933 202.115 28.824C203.353 28.3547 204.654 28.12 206.019 28.12C208.195 28.12 209.987 28.9307 211.395 30.552C212.846 32.1733 213.571 34.3067 213.571 36.952V50.584C213.571 51.4373 213.827 52.056 214.339 52.44C214.894 52.7813 215.491 53.0587 216.131 53.272C216.558 53.4427 216.899 53.6133 217.155 53.784C217.411 53.912 217.539 54.1253 217.539 54.424C217.539 54.936 217.091 55.192 216.195 55.192C215.299 55.192 214.595 55.1493 214.083 55.064C213.571 55.0213 213.081 54.9787 212.611 54.936C212.142 54.8933 211.502 54.872 210.691 54.872C209.881 54.872 209.241 54.8933 208.771 54.936C208.345 54.9787 207.875 55.0213 207.363 55.064C206.894 55.1493 206.19 55.192 205.251 55.192C204.355 55.192 203.907 54.936 203.907 54.424C203.907 54.0827 204.035 53.848 204.291 53.72C204.547 53.592 204.889 53.4427 205.315 53.272C205.913 53.1013 206.467 52.824 206.979 52.44C207.491 52.056 207.747 51.416 207.747 50.52V37.592C207.747 36.568 207.47 35.6507 206.915 34.84C206.361 33.9867 205.678 33.3253 204.867 32.856C204.099 32.3867 203.289 32.152 202.435 32.152C201.667 32.152 200.793 32.2587 199.811 32.472C198.873 32.6853 198.083 33.048 197.443 33.56C196.889 33.9867 196.505 34.456 196.291 34.968C196.121 35.4373 196.035 36.2267 196.035 37.336V50.712C196.078 51.5653 196.334 52.1627 196.803 52.504C197.273 52.8027 197.806 53.0587 198.403 53.272C198.83 53.4 199.171 53.5493 199.427 53.72C199.683 53.8907 199.811 54.1253 199.811 54.424C199.811 54.936 199.385 55.192 198.531 55.192C197.678 55.192 196.974 55.1493 196.419 55.064C195.907 55.0213 195.395 54.9787 194.883 54.936C194.414 54.8933 193.795 54.872 193.027 54.872C192.302 54.872 191.662 54.8933 191.107 54.936C190.595 54.9787 190.041 55.0213 189.443 55.064C188.889 55.1493 188.185 55.192 187.331 55.192ZM220.307 55.192C219.966 55.192 219.667 55.128 219.411 55C219.198 54.872 219.091 54.68 219.091 54.424C219.091 54.0827 219.219 53.848 219.475 53.72C219.774 53.5493 220.094 53.4213 220.435 53.336C221.417 53.08 222.142 52.8027 222.611 52.504C223.081 52.2053 223.315 51.672 223.315 50.904V37.08C223.315 35.8 223.102 34.776 222.675 34.008C222.249 33.1973 221.502 32.7067 220.435 32.536C220.222 32.4933 220.051 32.408 219.923 32.28C219.838 32.1093 219.795 31.8747 219.795 31.576C219.795 31.064 219.987 30.7867 220.371 30.744C222.249 30.3173 223.849 29.7627 225.171 29.08C226.537 28.3547 227.561 27.7787 228.243 27.352C228.713 27.0533 229.054 26.904 229.267 26.904C229.609 26.904 229.779 27.0747 229.779 27.416C229.779 27.8853 229.715 28.632 229.587 29.656C229.502 30.68 229.395 31.7893 229.267 32.984C229.182 34.1787 229.139 35.288 229.139 36.312V50.904C229.139 51.5867 229.374 52.0987 229.843 52.44C230.313 52.7813 231.038 53.08 232.019 53.336C232.361 53.4213 232.659 53.5493 232.915 53.72C233.214 53.848 233.363 54.0827 233.363 54.424C233.363 54.936 232.979 55.192 232.211 55.192C231.401 55.192 230.675 55.1493 230.035 55.064C229.395 55.0213 228.777 54.9787 228.179 54.936C227.625 54.8933 226.963 54.872 226.195 54.872C225.47 54.872 224.809 54.8933 224.211 54.936C223.614 54.9787 223.017 55.0213 222.419 55.064C221.865 55.1493 221.161 55.192 220.307 55.192ZM226.067 22.488C225.001 22.488 224.083 22.1253 223.315 21.4C222.59 20.632 222.227 19.7147 222.227 18.648C222.227 17.5387 222.59 16.6213 223.315 15.896C224.083 15.128 225.001 14.744 226.067 14.744C227.177 14.744 228.115 15.128 228.883 15.896C229.651 16.6213 230.035 17.5387 230.035 18.648C230.035 19.7147 229.651 20.632 228.883 21.4C228.115 22.1253 227.177 22.488 226.067 22.488ZM235.776 64.792C234.922 64.792 234.496 64.5147 234.496 63.96C234.496 63.7467 234.581 63.5547 234.752 63.384C234.922 63.256 235.178 63.1707 235.52 63.128C236.544 62.872 237.504 62.488 238.4 61.976C239.296 61.464 240.021 60.76 240.576 59.864C241.173 59.0107 241.472 57.9227 241.472 56.6C241.472 56.0027 241.216 55.4053 240.704 54.808C240.234 54.2107 239.637 53.8693 238.912 53.784C238.058 53.656 237.354 53.336 236.8 52.824C236.288 52.2693 236.032 51.5867 236.032 50.776C236.032 49.8373 236.416 49.048 237.184 48.408C237.952 47.768 238.848 47.448 239.872 47.448C241.536 47.448 242.901 48.0453 243.968 49.24C245.034 50.4347 245.568 51.9493 245.568 53.784C245.568 55.448 245.248 56.9413 244.608 58.264C243.968 59.6293 243.136 60.8027 242.112 61.784C241.13 62.7653 240.064 63.512 238.912 64.024C237.802 64.536 236.757 64.792 235.776 64.792Z" fill="white"/>
</g>
<g filter="url(#filter1_dd_119_419)">
<path d="M6.56001 165.384C5.79201 165.384 5.15201 165.256 4.64001 165C4.21334 164.829 4.00001 164.488 4.00001 163.976C4.00001 163.293 4.29868 162.824 4.89601 162.568C5.57868 162.312 6.26134 162.099 6.94401 161.928C8.73601 161.501 10.1013 160.989 11.04 160.392C11.9787 159.709 12.448 158.6 12.448 157.064V129.288C12.448 126.984 12.0213 124.936 11.168 123.144C10.4 121.352 8.90668 120.285 6.68801 119.944C6.26134 119.859 5.92001 119.688 5.66401 119.432C5.49334 119.176 5.40801 118.792 5.40801 118.28C5.40801 117.341 5.79201 116.829 6.56001 116.744C9.97334 115.976 12.7893 114.952 15.008 113.672C17.2267 112.307 18.8907 111.197 20 110.344C20.768 109.747 21.3653 109.448 21.792 109.448C22.304 109.448 22.56 109.661 22.56 110.088C22.56 110.771 22.432 112.136 22.176 114.184C22.0053 116.147 21.8347 118.365 21.664 120.84C21.4933 123.229 21.408 125.405 21.408 127.368V157.064C21.408 158.515 21.8773 159.581 22.816 160.264C23.84 160.947 25.2053 161.501 26.912 161.928C27.5947 162.099 28.2347 162.312 28.832 162.568C29.5147 162.824 29.856 163.293 29.856 163.976C29.856 164.915 29.0027 165.384 27.296 165.384C25.6747 165.384 24.352 165.299 23.328 165.128C22.3893 165.043 21.4507 164.957 20.512 164.872C19.6587 164.787 18.464 164.744 16.928 164.744C15.4773 164.744 14.2827 164.787 13.344 164.872C12.4053 164.957 11.4667 165.043 10.528 165.128C9.58934 165.299 8.26668 165.384 6.56001 165.384ZM16.8 98.952C15.008 98.952 13.472 98.3547 12.192 97.16C10.9973 95.88 10.4 94.344 10.4 92.552C10.4 90.6747 10.9973 89.1387 12.192 87.944C13.472 86.664 15.008 86.024 16.8 86.024C18.6773 86.024 20.2133 86.664 21.408 87.944C22.688 89.1387 23.328 90.6747 23.328 92.552C23.328 94.344 22.688 95.88 21.408 97.16C20.2133 98.3547 18.6773 98.952 16.8 98.952ZM37.295 110.472C35.759 110.472 34.991 110.003 34.991 109.064C34.991 108.723 35.119 108.424 35.375 108.168C35.7163 107.827 36.1857 107.613 36.783 107.528C38.6603 107.101 40.5377 106.376 42.415 105.352C44.2923 104.328 45.871 102.877 47.151 101C48.431 99.0373 49.071 96.5627 49.071 93.576C49.071 92.552 48.6017 91.4 47.663 90.12C46.7243 88.7547 45.5297 88.0293 44.079 87.944C42.2017 87.7733 40.7083 87.176 39.599 86.152C38.575 85.128 38.063 83.9333 38.063 82.568C38.063 80.8613 38.7457 79.4533 40.111 78.344C41.5617 77.2347 43.2257 76.68 45.103 76.68C48.175 76.68 50.6923 77.8747 52.655 80.264C54.703 82.568 55.727 85.512 55.727 89.096C55.727 92.3387 55.087 95.2827 53.807 97.928C52.527 100.488 50.9057 102.707 48.943 104.584C46.9803 106.461 44.9323 107.912 42.799 108.936C40.751 109.96 38.9163 110.472 37.295 110.472ZM63.815 165.384C63.1323 165.384 62.535 165.299 62.023 165.128C61.511 164.957 61.255 164.573 61.255 163.976C61.255 163.379 61.511 162.952 62.023 162.696C62.6203 162.44 63.3457 162.184 64.199 161.928C65.3937 161.501 66.5883 161.032 67.783 160.52C69.063 159.923 69.703 158.771 69.703 157.064V129.544C69.703 127.24 69.447 125.235 68.935 123.528C68.423 121.736 67.0577 120.669 64.839 120.328C64.4977 120.243 64.199 120.072 63.943 119.816C63.7723 119.56 63.687 119.176 63.687 118.664C63.687 117.811 64.0283 117.299 64.711 117.128C67.015 116.531 68.8497 115.933 70.215 115.336C71.5803 114.653 72.775 113.928 73.799 113.16C74.9083 112.307 76.231 111.411 77.767 110.472C77.9377 110.387 78.1083 110.301 78.279 110.216C78.4497 110.045 78.663 109.96 78.919 109.96C79.431 109.96 79.687 110.259 79.687 110.856C79.687 111.453 79.559 112.691 79.303 114.568C79.1323 116.36 79.047 117.853 79.047 119.048C79.047 119.901 79.1323 120.413 79.303 120.584H79.559C81.5217 118.707 84.0817 116.829 87.239 114.952C90.4817 112.989 94.5777 112.008 99.527 112.008C102.599 112.008 105.159 112.691 107.207 114.056C109.255 115.336 110.962 117.597 112.327 120.84H112.711C115.442 118.365 118.556 116.275 122.055 114.568C125.554 112.861 129.394 112.008 133.575 112.008C136.391 112.008 138.738 112.861 140.615 114.568C142.492 116.275 143.9 118.493 144.839 121.224C145.863 123.955 146.375 126.813 146.375 129.8V157.064C146.375 158.771 146.972 159.923 148.167 160.52C149.362 161.032 150.599 161.501 151.879 161.928C152.732 162.184 153.415 162.44 153.927 162.696C154.524 162.952 154.823 163.379 154.823 163.976C154.823 164.488 154.61 164.829 154.183 165C153.842 165.256 153.202 165.384 152.263 165.384C150.556 165.384 149.234 165.299 148.295 165.128C147.356 165.043 146.46 164.957 145.607 164.872C144.839 164.787 143.687 164.744 142.151 164.744C140.7 164.744 139.506 164.787 138.567 164.872C137.628 164.957 136.647 165.043 135.623 165.128C134.599 165.299 133.234 165.384 131.527 165.384C130.759 165.384 130.119 165.256 129.607 165C129.18 164.829 128.967 164.488 128.967 163.976C128.967 163.293 129.223 162.824 129.735 162.568C130.332 162.312 131.058 162.099 131.911 161.928C133.276 161.587 134.514 161.117 135.623 160.52C136.818 159.923 137.415 158.771 137.415 157.064V130.184C137.415 128.136 136.946 126.216 136.007 124.424C135.068 122.547 133.831 121.011 132.295 119.816C130.759 118.621 129.052 118.024 127.175 118.024C125.042 118.024 123.036 118.28 121.159 118.792C119.367 119.304 117.66 120.2 116.039 121.48C113.65 123.357 112.455 126.429 112.455 130.696V157.064C112.455 158.771 113.095 159.923 114.375 160.52C115.655 161.117 116.935 161.587 118.215 161.928C119.068 162.099 119.751 162.355 120.263 162.696C120.86 162.952 121.159 163.379 121.159 163.976C121.159 164.488 120.946 164.829 120.519 165C120.092 165.256 119.452 165.384 118.599 165.384C116.892 165.384 115.527 165.299 114.503 165.128C113.564 165.043 112.626 164.957 111.687 164.872C110.834 164.787 109.639 164.744 108.103 164.744C106.652 164.744 105.458 164.787 104.519 164.872C103.58 164.957 102.599 165.043 101.575 165.128C100.551 165.299 99.1857 165.384 97.479 165.384C96.7963 165.384 96.199 165.256 95.687 165C95.175 164.829 94.919 164.488 94.919 163.976C94.919 163.293 95.2177 162.867 95.815 162.696C96.4977 162.44 97.1803 162.184 97.863 161.928C99.143 161.501 100.38 161.032 101.575 160.52C102.855 159.923 103.495 158.771 103.495 157.064V130.184C103.495 128.136 103.026 126.216 102.087 124.424C101.148 122.547 99.911 121.011 98.375 119.816C96.839 118.621 95.1323 118.024 93.255 118.024C91.1217 118.024 89.1163 118.28 87.239 118.792C85.447 119.304 83.7403 120.2 82.119 121.48C79.815 123.187 78.663 126.259 78.663 130.696V157.064C78.663 158.771 79.2603 159.923 80.455 160.52C81.6497 161.032 82.887 161.501 84.167 161.928C84.8497 162.184 85.4897 162.44 86.087 162.696C86.7697 162.867 87.111 163.293 87.111 163.976C87.111 164.488 86.855 164.829 86.343 165C85.9163 165.256 85.319 165.384 84.551 165.384C82.8443 165.384 81.479 165.299 80.455 165.128C79.5163 165.043 78.6203 164.957 77.767 164.872C76.9137 164.787 75.719 164.744 74.183 164.744C72.7323 164.744 71.5377 164.787 70.599 164.872C69.7457 164.957 68.807 165.043 67.783 165.128C66.8443 165.299 65.5217 165.384 63.815 165.384Z" fill="white"/>
</g>
<g filter="url(#filter2_d_119_419)">
<path d="M165.732 202.12C161.807 202.12 158.905 201.437 157.028 200.072C155.151 198.707 154.255 197.213 154.34 195.592C154.425 194.397 154.809 193.288 155.492 192.264C156.175 191.325 156.985 190.515 157.924 189.832C158.863 189.235 159.673 188.936 160.356 188.936C161.551 188.936 162.575 189.32 163.428 190.088C164.196 190.941 164.964 191.795 165.732 192.648C166.415 193.501 167.225 194.227 168.164 194.824C169.017 195.507 170.084 195.848 171.364 195.848C173.583 195.848 175.503 194.483 177.124 191.752C178.745 189.021 180.239 185.523 181.604 181.256L198.372 129.928C198.969 127.965 199.14 126.643 198.884 125.96C198.628 125.192 198.159 124.808 197.476 124.808C196.537 124.808 195.471 125.064 194.276 125.576C193.081 126.003 191.716 126.6 190.18 127.368C189.497 127.624 188.857 127.667 188.26 127.496C187.748 127.325 187.492 126.941 187.492 126.344C187.492 125.832 187.663 125.405 188.004 125.064C188.431 124.637 188.985 124.125 189.668 123.528C191.545 121.992 193.551 120.584 195.684 119.304C197.903 117.939 200.121 116.744 202.34 115.72C204.559 114.696 206.649 113.757 208.612 112.904C210.575 112.051 212.196 111.24 213.476 110.472C214.671 110.045 215.823 110.344 216.932 111.368C218.041 112.392 218.425 113.416 218.084 114.44C217.487 116.232 216.676 118.365 215.652 120.84C214.628 123.315 213.647 126.003 212.708 128.904L197.22 175.752C196.111 179.251 194.233 182.579 191.588 185.736C189.028 188.893 186.127 191.709 182.884 194.184C179.727 196.659 176.612 198.579 173.54 199.944C170.468 201.395 167.865 202.12 165.732 202.12ZM214.884 99.848C213.177 99.848 211.769 99.208 210.66 97.928C209.551 96.5627 208.996 95.0693 208.996 93.448C208.996 90.8027 209.892 88.4987 211.684 86.536C213.561 84.488 215.865 83.464 218.596 83.464C220.388 83.464 221.796 84.232 222.82 85.768C223.844 87.2187 224.356 88.7973 224.356 90.504C224.356 92.8933 223.417 95.0693 221.54 97.032C219.748 98.9093 217.529 99.848 214.884 99.848ZM227.165 166.792C225.373 166.792 223.794 166.152 222.429 164.872C221.064 163.507 220.381 162.141 220.381 160.776C220.381 160.349 220.381 159.965 220.381 159.624C220.466 159.197 220.637 158.728 220.893 158.216C223.709 152.243 226.226 146.44 228.445 140.808C230.664 135.176 232.754 129.928 234.717 125.064C234.973 124.381 234.802 124.04 234.205 124.04C233.608 124.04 232.797 124.253 231.773 124.68C230.749 125.107 229.682 125.661 228.573 126.344C227.464 126.941 226.397 127.581 225.373 128.264C224.52 128.776 223.837 128.904 223.325 128.648C222.898 128.307 222.685 127.837 222.685 127.24C222.685 126.728 223.154 125.917 224.093 124.808C225.117 123.699 226.397 122.504 227.933 121.224C229.554 119.859 231.346 118.493 233.309 117.128C235.272 115.763 237.234 114.525 239.197 113.416C241.16 112.221 242.952 111.283 244.573 110.6C245.682 110.173 246.792 110.259 247.901 110.856C249.01 111.453 249.906 112.264 250.589 113.288C251.272 114.227 251.442 115.08 251.101 115.848L236.381 151.816C236.125 152.243 235.954 152.712 235.869 153.224C235.784 153.651 235.741 154.035 235.741 154.376C235.741 154.803 235.869 155.101 236.125 155.272C236.466 155.443 236.765 155.528 237.021 155.528C237.96 155.528 239.197 155.016 240.733 153.992C242.354 152.883 244.018 151.603 245.725 150.152C247.517 148.701 249.096 147.293 250.461 145.928C250.632 145.672 250.802 145.544 250.973 145.544C251.314 145.544 251.613 145.715 251.869 146.056C252.125 146.312 252.253 146.611 252.253 146.952C252.253 148.488 251.357 150.365 249.565 152.584C247.858 154.717 245.682 156.893 243.037 159.112C240.392 161.245 237.618 163.08 234.717 164.616C231.901 166.067 229.384 166.792 227.165 166.792ZM251.485 100.104C249.778 100.104 248.37 99.464 247.261 98.184C246.152 96.8187 245.597 95.3253 245.597 93.704C245.597 91.0587 246.493 88.7547 248.285 86.792C250.162 84.744 252.466 83.72 255.197 83.72C256.989 83.72 258.397 84.488 259.421 86.024C260.445 87.4747 260.957 89.0533 260.957 90.76C260.957 93.1493 260.018 95.3253 258.141 97.288C256.349 99.1653 254.13 100.104 251.485 100.104ZM260.488 166.792C259.379 166.792 258.227 166.451 257.032 165.768C255.923 165.171 254.984 164.403 254.216 163.464C253.448 162.525 253.064 161.587 253.064 160.648C253.064 157.832 253.917 154.717 255.624 151.304C257.331 147.891 259.933 143.965 263.432 139.528C267.016 135.005 271.624 129.843 277.256 124.04C281.267 120.029 284.808 116.872 287.88 114.568C291.037 112.179 293.384 110.984 294.92 110.984C296.883 110.984 298.973 111.965 301.192 113.928C301.96 114.781 302.344 115.208 302.344 115.208C302.344 115.208 302.387 115.208 302.472 115.208C302.643 115.208 302.771 115.165 302.856 115.08C302.941 114.995 303.069 114.781 303.24 114.44C304.093 112.904 304.648 111.923 304.904 111.496C305.16 110.984 305.288 110.643 305.288 110.472C305.715 109.448 306.568 108.936 307.848 108.936C309.043 108.936 310.237 109.192 311.432 109.704C312.712 110.216 313.736 110.856 314.504 111.624C315.357 112.307 315.784 112.947 315.784 113.544C315.784 114.056 315.656 114.696 315.4 115.464L302.088 151.304C301.235 153.779 301.704 155.016 303.496 155.016C304.691 155.016 306.312 154.291 308.36 152.84C310.493 151.304 312.499 149.469 314.376 147.336C314.632 147.165 314.803 147.08 314.888 147.08C314.973 146.995 315.059 146.952 315.144 146.952C315.571 146.952 315.912 147.123 316.168 147.464C316.424 147.72 316.552 148.147 316.552 148.744C316.552 149.768 315.784 151.261 314.248 153.224C312.797 155.187 311.005 157.107 308.872 158.984C306.056 161.459 303.24 163.379 300.424 164.744C297.608 166.109 295.176 166.792 293.128 166.792C292.019 166.792 290.867 166.451 289.672 165.768C288.477 165.171 287.496 164.403 286.728 163.464C285.96 162.44 285.576 161.459 285.576 160.52C285.576 159.752 285.832 158.771 286.344 157.576C286.344 157.491 286.472 157.064 286.728 156.296C287.069 155.443 287.496 154.419 288.008 153.224C288.52 151.944 289.075 150.707 289.672 149.512C290.269 148.232 290.824 147.037 291.336 145.928C291.592 145.331 291.592 144.904 291.336 144.648C291.165 144.307 290.909 144.307 290.568 144.648C285.96 149.939 281.821 154.205 278.152 157.448C274.568 160.691 271.368 163.08 268.552 164.616C265.736 166.067 263.048 166.792 260.488 166.792ZM271.88 155.016C273.501 155.016 275.976 153.608 279.304 150.792C282.632 147.976 286.173 144.307 289.928 139.784C292.829 136.285 295.133 133.128 296.84 130.312C298.547 127.496 299.4 125.448 299.4 124.168C299.4 123.485 298.632 122.504 297.096 121.224C296.413 120.627 295.645 120.157 294.792 119.816C294.024 119.475 293.384 119.304 292.872 119.304C291.507 119.304 289.587 120.072 287.112 121.608C284.723 123.144 282.461 124.936 280.328 126.984C278.28 129.032 276.317 131.507 274.44 134.408C272.563 137.224 271.027 140.083 269.832 142.984C268.637 145.885 268.04 148.403 268.04 150.536C268.04 151.901 268.381 153.011 269.064 153.864C269.747 154.632 270.685 155.016 271.88 155.016ZM310.408 201.992C308.445 201.992 306.611 201.395 304.904 200.2C303.112 199.005 302.216 197.213 302.216 194.824C302.216 193.373 302.557 192.008 303.24 190.728C303.837 189.533 304.691 188.509 305.8 187.656C306.824 186.803 307.891 186.376 309 186.376C309.939 186.376 310.877 186.632 311.816 187.144C312.669 187.741 313.48 188.381 314.248 189.064C315.187 189.747 316.125 190.344 317.064 190.856C318.003 191.453 319.069 191.752 320.264 191.752C322.995 191.752 325.725 190.259 328.456 187.272C331.187 184.285 333.661 180.445 335.88 175.752C337.587 172.083 338.781 167.901 339.464 163.208C340.232 158.429 340.616 153.352 340.616 147.976C340.616 141.149 340.189 135.731 339.336 131.72C338.483 127.709 337.501 124.808 336.392 123.016C335.283 121.224 334.301 120.328 333.448 120.328C332.68 120.328 331.827 120.883 330.888 121.992C330.035 123.016 329.181 124.211 328.328 125.576C327.56 126.856 326.963 127.965 326.536 128.904C326.365 129.245 326.024 129.843 325.512 130.696C325.085 131.549 324.616 131.976 324.104 131.976C323.848 131.976 323.592 131.635 323.336 130.952C323.08 130.269 322.952 129.416 322.952 128.392C322.952 126.173 323.464 123.997 324.488 121.864C325.597 119.645 326.963 117.64 328.584 115.848C330.205 114.056 331.955 112.648 333.832 111.624C335.795 110.515 337.629 109.96 339.336 109.96C341.725 109.96 343.645 110.771 345.096 112.392C346.547 113.928 347.784 116.232 348.808 119.304C350.003 122.973 351.027 127.667 351.88 133.384C352.819 139.016 353.075 146.099 352.648 154.632C352.563 156.168 352.691 156.893 353.032 156.808C353.459 156.723 353.971 156.125 354.568 155.016C357.469 149.469 359.645 143.197 361.096 136.2C362.632 129.203 363.357 121.267 363.272 112.392C363.272 111.795 363.741 111.155 364.68 110.472C365.619 109.704 366.387 109.32 366.984 109.32C367.581 109.32 368.435 109.661 369.544 110.344C370.653 111.027 371.635 111.923 372.488 113.032C373.427 114.141 373.896 115.379 373.896 116.744C373.896 122.035 372.445 128.264 369.544 135.432C366.728 142.515 362.717 150.024 357.512 157.96C352.307 165.896 346.248 173.789 339.336 181.64C336.093 185.309 332.723 188.68 329.224 191.752C325.725 194.909 322.355 197.384 319.112 199.176C315.955 201.053 313.053 201.992 310.408 201.992ZM382.86 166.792C381.068 166.792 379.489 166.152 378.124 164.872C376.759 163.507 376.076 162.141 376.076 160.776C376.076 160.349 376.076 159.965 376.076 159.624C376.161 159.197 376.332 158.728 376.588 158.216C379.404 152.243 381.921 146.44 384.14 140.808C386.359 135.176 388.449 129.928 390.412 125.064C390.668 124.381 390.497 124.04 389.9 124.04C389.303 124.04 388.492 124.253 387.468 124.68C386.444 125.107 385.377 125.661 384.268 126.344C383.159 126.941 382.092 127.581 381.068 128.264C380.215 128.776 379.532 128.904 379.02 128.648C378.593 128.307 378.38 127.837 378.38 127.24C378.38 126.728 378.849 125.917 379.788 124.808C380.812 123.699 382.092 122.504 383.628 121.224C385.249 119.859 387.041 118.493 389.004 117.128C390.967 115.763 392.929 114.525 394.892 113.416C396.855 112.221 398.647 111.283 400.268 110.6C401.377 110.173 402.487 110.259 403.596 110.856C404.705 111.453 405.601 112.264 406.284 113.288C406.967 114.227 407.137 115.08 406.796 115.848L392.076 151.816C391.82 152.243 391.649 152.712 391.564 153.224C391.479 153.651 391.436 154.035 391.436 154.376C391.436 154.803 391.564 155.101 391.82 155.272C392.161 155.443 392.46 155.528 392.716 155.528C393.655 155.528 394.892 155.016 396.428 153.992C398.049 152.883 399.713 151.603 401.42 150.152C403.212 148.701 404.791 147.293 406.156 145.928C406.327 145.672 406.497 145.544 406.668 145.544C407.009 145.544 407.308 145.715 407.564 146.056C407.82 146.312 407.948 146.611 407.948 146.952C407.948 148.488 407.052 150.365 405.26 152.584C403.553 154.717 401.377 156.893 398.732 159.112C396.087 161.245 393.313 163.08 390.412 164.616C387.596 166.067 385.079 166.792 382.86 166.792ZM407.18 100.104C405.473 100.104 404.065 99.464 402.956 98.184C401.847 96.8187 401.292 95.3253 401.292 93.704C401.292 91.0587 402.188 88.7547 403.98 86.792C405.857 84.744 408.161 83.72 410.892 83.72C412.684 83.72 414.092 84.488 415.116 86.024C416.14 87.4747 416.652 89.0533 416.652 90.76C416.652 93.1493 415.713 95.3253 413.836 97.288C412.044 99.1653 409.825 100.104 407.18 100.104ZM418.871 168.2C416.823 168.2 415.074 167.389 413.623 165.768C412.172 164.232 411.447 162.483 411.447 160.52C411.447 158.472 411.959 156.595 412.983 154.888C414.007 153.181 415.33 151.816 416.951 150.792C418.658 149.768 420.492 149.256 422.455 149.256C424.93 149.256 426.807 150.109 428.087 151.816C429.452 153.523 430.135 155.4 430.135 157.448C430.135 159.325 429.623 161.075 428.599 162.696C427.66 164.317 426.295 165.64 424.503 166.664C422.796 167.688 420.919 168.2 418.871 168.2Z" fill="white"/>
</g>
<path d="M4.30295 232.21C3.73828 232.21 3.26462 232.107 2.88195 231.902C2.50395 231.692 2.21695 231.417 2.02095 231.076C1.82962 230.735 1.73395 230.362 1.73395 229.956C1.73395 229.559 1.80862 229.216 1.95795 228.927C2.11195 228.633 2.32662 228.39 2.60195 228.199C2.87728 228.003 3.20628 227.849 3.58895 227.737C3.94828 227.639 4.34962 227.555 4.79295 227.485C5.24095 227.41 5.69362 227.343 6.15095 227.282C6.60828 227.221 7.03528 227.163 7.43195 227.107L6.98395 227.366C6.99795 226.694 6.86262 226.197 6.57795 225.875C6.29795 225.553 5.81262 225.392 5.12195 225.392C4.66462 225.392 4.26328 225.497 3.91795 225.707C3.57728 225.912 3.33695 226.248 3.19695 226.715L2.01395 226.358C2.19595 225.695 2.54828 225.175 3.07095 224.797C3.59362 224.419 4.28195 224.23 5.13595 224.23C5.82195 224.23 6.40995 224.354 6.89995 224.601C7.39462 224.844 7.74928 225.212 7.96395 225.707C8.07128 225.94 8.13895 226.195 8.16695 226.47C8.19495 226.741 8.20895 227.025 8.20895 227.324V232H7.10295V230.187L7.36195 230.355C7.07728 230.966 6.67828 231.428 6.16495 231.741C5.65628 232.054 5.03562 232.21 4.30295 232.21ZM4.49195 231.167C4.93995 231.167 5.32728 231.088 5.65395 230.929C5.98528 230.766 6.25128 230.553 6.45195 230.292C6.65262 230.026 6.78328 229.737 6.84395 229.424C6.91395 229.191 6.95128 228.932 6.95595 228.647C6.96528 228.358 6.96995 228.136 6.96995 227.982L7.40395 228.171C6.99795 228.227 6.59895 228.281 6.20695 228.332C5.81495 228.383 5.44395 228.439 5.09395 228.5C4.74395 228.556 4.42895 228.624 4.14895 228.703C3.94362 228.768 3.74995 228.852 3.56795 228.955C3.39062 229.058 3.24595 229.191 3.13395 229.354C3.02662 229.513 2.97295 229.711 2.97295 229.949C2.97295 230.154 3.02428 230.35 3.12695 230.537C3.23428 230.724 3.39762 230.875 3.61695 230.992C3.84095 231.109 4.13262 231.167 4.49195 231.167ZM16.3037 232.21C15.5944 232.21 14.997 232.035 14.5117 231.685C14.0264 231.33 13.6577 230.852 13.4057 230.25C13.1584 229.643 13.0347 228.964 13.0347 228.213C13.0347 227.452 13.1584 226.771 13.4057 226.169C13.6577 225.567 14.0264 225.093 14.5117 224.748C15.0017 224.403 15.6014 224.23 16.3107 224.23C17.0107 224.23 17.6127 224.405 18.1167 224.755C18.6254 225.1 19.015 225.574 19.2857 226.176C19.5564 226.778 19.6917 227.457 19.6917 228.213C19.6917 228.969 19.5564 229.648 19.2857 230.25C19.015 230.852 18.6254 231.33 18.1167 231.685C17.6127 232.035 17.0084 232.21 16.3037 232.21ZM12.8247 235.36V224.44H13.9377V230.005H14.0777V235.36H12.8247ZM16.1497 231.069C16.649 231.069 17.062 230.943 17.3887 230.691C17.7154 230.439 17.9604 230.098 18.1237 229.669C18.287 229.235 18.3687 228.75 18.3687 228.213C18.3687 227.681 18.287 227.2 18.1237 226.771C17.965 226.342 17.7177 226.001 17.3817 225.749C17.0504 225.497 16.628 225.371 16.1147 225.371C15.6247 225.371 15.2187 225.492 14.8967 225.735C14.5747 225.973 14.3344 226.307 14.1757 226.736C14.017 227.161 13.9377 227.653 13.9377 228.213C13.9377 228.764 14.0147 229.256 14.1687 229.69C14.3274 230.119 14.57 230.458 14.8967 230.705C15.2234 230.948 15.641 231.069 16.1497 231.069ZM21.2262 232V224.44H22.3392V226.267L22.1572 226.029C22.2459 225.796 22.3602 225.581 22.5002 225.385C22.6449 225.189 22.8059 225.028 22.9832 224.902C23.1792 224.743 23.4009 224.622 23.6482 224.538C23.8955 224.454 24.1475 224.405 24.4042 224.391C24.6609 224.372 24.9012 224.389 25.1252 224.44V225.609C24.8639 225.539 24.5769 225.52 24.2642 225.553C23.9515 225.586 23.6622 225.7 23.3962 225.896C23.1535 226.069 22.9645 226.279 22.8292 226.526C22.6985 226.773 22.6075 227.042 22.5562 227.331C22.5049 227.616 22.4792 227.907 22.4792 228.206V232H21.2262ZM29.5322 232.21C28.7808 232.21 28.1322 232.04 27.5862 231.699C27.0448 231.358 26.6272 230.887 26.3332 230.285C26.0392 229.683 25.8922 228.992 25.8922 228.213C25.8922 227.42 26.0415 226.724 26.3402 226.127C26.6388 225.53 27.0612 225.065 27.6072 224.734C28.1532 224.398 28.7948 224.23 29.5322 224.23C30.2882 224.23 30.9392 224.4 31.4852 224.741C32.0312 225.077 32.4488 225.546 32.7382 226.148C33.0322 226.745 33.1792 227.434 33.1792 228.213C33.1792 229.002 33.0322 229.697 32.7382 230.299C32.4442 230.896 32.0242 231.365 31.4782 231.706C30.9322 232.042 30.2835 232.21 29.5322 232.21ZM29.5322 231.027C30.3162 231.027 30.8995 230.766 31.2822 230.243C31.6648 229.72 31.8562 229.044 31.8562 228.213C31.8562 227.359 31.6625 226.68 31.2752 226.176C30.8878 225.667 30.3068 225.413 29.5322 225.413C29.0048 225.413 28.5708 225.532 28.2302 225.77C27.8895 226.008 27.6352 226.337 27.4672 226.757C27.2992 227.177 27.2152 227.662 27.2152 228.213C27.2152 229.062 27.4112 229.744 27.8032 230.257C28.1952 230.77 28.7715 231.027 29.5322 231.027ZM38.1924 232.21C37.483 232.21 36.8857 232.035 36.4004 231.685C35.915 231.33 35.5464 230.852 35.2944 230.25C35.047 229.643 34.9234 228.964 34.9234 228.213C34.9234 227.452 35.047 226.771 35.2944 226.169C35.5464 225.567 35.915 225.093 36.4004 224.748C36.8904 224.403 37.49 224.23 38.1994 224.23C38.8994 224.23 39.5014 224.405 40.0054 224.755C40.514 225.1 40.9037 225.574 41.1744 226.176C41.445 226.778 41.5804 227.457 41.5804 228.213C41.5804 228.969 41.445 229.648 41.1744 230.25C40.9037 230.852 40.514 231.33 40.0054 231.685C39.5014 232.035 38.897 232.21 38.1924 232.21ZM34.7134 232V221.92H35.9664V226.435H35.8264V232H34.7134ZM38.0384 231.069C38.5377 231.069 38.9507 230.943 39.2774 230.691C39.604 230.439 39.849 230.098 40.0124 229.669C40.1757 229.235 40.2574 228.75 40.2574 228.213C40.2574 227.681 40.1757 227.2 40.0124 226.771C39.8537 226.342 39.6064 226.001 39.2704 225.749C38.939 225.497 38.5167 225.371 38.0034 225.371C37.5134 225.371 37.1074 225.492 36.7854 225.735C36.4634 225.973 36.223 226.307 36.0644 226.736C35.9057 227.161 35.8264 227.653 35.8264 228.213C35.8264 228.764 35.9034 229.256 36.0574 229.69C36.216 230.119 36.4587 230.458 36.7854 230.705C37.112 230.948 37.5297 231.069 38.0384 231.069ZM43.2549 232V221.71H44.5009V232H43.2549ZM49.8772 232.21C49.1352 232.21 48.4865 232.047 47.9312 231.72C47.3805 231.389 46.9512 230.929 46.6432 230.341C46.3352 229.748 46.1812 229.058 46.1812 228.269C46.1812 227.443 46.3329 226.729 46.6362 226.127C46.9395 225.52 47.3619 225.054 47.9032 224.727C48.4492 224.396 49.0885 224.23 49.8212 224.23C50.5819 224.23 51.2282 224.405 51.7602 224.755C52.2969 225.105 52.6982 225.604 52.9642 226.253C53.2349 226.902 53.3515 227.674 53.3142 228.57H52.0542V228.122C52.0402 227.193 51.8512 226.5 51.4872 226.043C51.1232 225.581 50.5819 225.35 49.8632 225.35C49.0932 225.35 48.5075 225.597 48.1062 226.092C47.7049 226.587 47.5042 227.296 47.5042 228.22C47.5042 229.111 47.7049 229.802 48.1062 230.292C48.5075 230.782 49.0792 231.027 49.8212 231.027C50.3205 231.027 50.7545 230.913 51.1232 230.684C51.4919 230.455 51.7812 230.126 51.9912 229.697L53.1882 230.11C52.8942 230.777 52.4509 231.295 51.8582 231.664C51.2702 232.028 50.6099 232.21 49.8772 232.21ZM47.0842 228.57V227.569H52.6702V228.57H47.0842ZM63.7046 232L63.7116 227.163C63.7116 226.598 63.56 226.157 63.2566 225.84C62.958 225.518 62.5683 225.357 62.0876 225.357C61.8076 225.357 61.5416 225.422 61.2896 225.553C61.0376 225.679 60.8323 225.88 60.6736 226.155C60.515 226.426 60.4356 226.773 60.4356 227.198L59.7776 226.932C59.7683 226.395 59.878 225.926 60.1066 225.525C60.34 225.119 60.6573 224.804 61.0586 224.58C61.46 224.356 61.9126 224.244 62.4166 224.244C63.2053 224.244 63.826 224.484 64.2786 224.965C64.7313 225.441 64.9576 226.083 64.9576 226.89L64.9506 232H63.7046ZM54.6606 232V224.44H55.7736V226.463H55.9136V232H54.6606ZM59.1896 232L59.1966 227.212C59.1966 226.633 59.0473 226.181 58.7486 225.854C58.45 225.523 58.0533 225.357 57.5586 225.357C57.0686 225.357 56.672 225.525 56.3686 225.861C56.0653 226.197 55.9136 226.643 55.9136 227.198L55.2556 226.806C55.2556 226.316 55.3723 225.877 55.6056 225.49C55.839 225.103 56.1563 224.799 56.5576 224.58C56.959 224.356 57.414 224.244 57.9226 224.244C58.4313 224.244 58.8746 224.351 59.2526 224.566C59.6306 224.781 59.9223 225.089 60.1276 225.49C60.333 225.887 60.4356 226.36 60.4356 226.911L60.4286 232H59.1896ZM72.4396 232.203C71.539 232.203 70.7993 232.007 70.2206 231.615C69.6466 231.218 69.2943 230.665 69.1636 229.956L70.4376 229.753C70.5403 230.164 70.776 230.49 71.1446 230.733C71.5133 230.971 71.9706 231.09 72.5166 231.09C73.0346 231.09 73.4406 230.983 73.7346 230.768C74.0286 230.553 74.1756 230.262 74.1756 229.893C74.1756 229.678 74.1266 229.506 74.0286 229.375C73.9306 229.24 73.7276 229.114 73.4196 228.997C73.1163 228.88 72.6566 228.74 72.0406 228.577C71.3733 228.4 70.8483 228.215 70.4656 228.024C70.083 227.833 69.81 227.611 69.6466 227.359C69.4833 227.107 69.4016 226.801 69.4016 226.442C69.4016 225.999 69.523 225.611 69.7656 225.28C70.0083 224.944 70.3466 224.685 70.7806 224.503C71.2193 224.321 71.728 224.23 72.3066 224.23C72.8806 224.23 73.394 224.321 73.8466 224.503C74.2993 224.685 74.6633 224.944 74.9386 225.28C75.2186 225.611 75.3843 225.999 75.4356 226.442L74.1616 226.673C74.101 226.267 73.905 225.947 73.5736 225.714C73.247 225.481 72.8246 225.357 72.3066 225.343C71.8166 225.324 71.4176 225.411 71.1096 225.602C70.8063 225.793 70.6546 226.052 70.6546 226.379C70.6546 226.561 70.7106 226.717 70.8226 226.848C70.9393 226.979 71.1516 227.102 71.4596 227.219C71.7723 227.336 72.225 227.469 72.8176 227.618C73.485 227.786 74.01 227.97 74.3926 228.171C74.78 228.367 75.0553 228.6 75.2186 228.871C75.382 229.137 75.4636 229.466 75.4636 229.858C75.4636 230.586 75.1953 231.16 74.6586 231.58C74.122 231.995 73.3823 232.203 72.4396 232.203ZM80.2275 232.21C79.4761 232.21 78.8275 232.04 78.2815 231.699C77.7401 231.358 77.3225 230.887 77.0285 230.285C76.7345 229.683 76.5875 228.992 76.5875 228.213C76.5875 227.42 76.7368 226.724 77.0355 226.127C77.3341 225.53 77.7565 225.065 78.3025 224.734C78.8485 224.398 79.4901 224.23 80.2275 224.23C80.9835 224.23 81.6345 224.4 82.1805 224.741C82.7265 225.077 83.1441 225.546 83.4335 226.148C83.7275 226.745 83.8745 227.434 83.8745 228.213C83.8745 229.002 83.7275 229.697 83.4335 230.299C83.1395 230.896 82.7195 231.365 82.1735 231.706C81.6275 232.042 80.9788 232.21 80.2275 232.21ZM80.2275 231.027C81.0115 231.027 81.5948 230.766 81.9775 230.243C82.3601 229.72 82.5515 229.044 82.5515 228.213C82.5515 227.359 82.3578 226.68 81.9705 226.176C81.5831 225.667 81.0021 225.413 80.2275 225.413C79.7001 225.413 79.2661 225.532 78.9255 225.77C78.5848 226.008 78.3305 226.337 78.1625 226.757C77.9945 227.177 77.9105 227.662 77.9105 228.213C77.9105 229.062 78.1065 229.744 78.4985 230.257C78.8905 230.77 79.4668 231.027 80.2275 231.027ZM85.5557 232V221.71H86.8017V232H85.5557ZM90.946 232L88.202 224.44H89.462L91.583 230.411L93.697 224.44H94.964L92.22 232H90.946ZM99.2327 232.21C98.4907 232.21 97.842 232.047 97.2867 231.72C96.736 231.389 96.3067 230.929 95.9987 230.341C95.6907 229.748 95.5367 229.058 95.5367 228.269C95.5367 227.443 95.6884 226.729 95.9917 226.127C96.295 225.52 96.7174 225.054 97.2587 224.727C97.8047 224.396 98.444 224.23 99.1767 224.23C99.9374 224.23 100.584 224.405 101.116 224.755C101.652 225.105 102.054 225.604 102.32 226.253C102.59 226.902 102.707 227.674 102.67 228.57H101.41V228.122C101.396 227.193 101.207 226.5 100.843 226.043C100.479 225.581 99.9374 225.35 99.2187 225.35C98.4487 225.35 97.863 225.597 97.4617 226.092C97.0604 226.587 96.8597 227.296 96.8597 228.22C96.8597 229.111 97.0604 229.802 97.4617 230.292C97.863 230.782 98.4347 231.027 99.1767 231.027C99.676 231.027 100.11 230.913 100.479 230.684C100.847 230.455 101.137 230.126 101.347 229.697L102.544 230.11C102.25 230.777 101.806 231.295 101.214 231.664C100.626 232.028 99.9654 232.21 99.2327 232.21ZM96.4397 228.57V227.569H102.026V228.57H96.4397ZM104.228 232V224.44H105.341V226.267L105.159 226.029C105.248 225.796 105.362 225.581 105.502 225.385C105.647 225.189 105.808 225.028 105.985 224.902C106.181 224.743 106.403 224.622 106.65 224.538C106.898 224.454 107.15 224.405 107.406 224.391C107.663 224.372 107.903 224.389 108.127 224.44V225.609C107.866 225.539 107.579 225.52 107.266 225.553C106.954 225.586 106.664 225.7 106.398 225.896C106.156 226.069 105.967 226.279 105.831 226.526C105.701 226.773 105.61 227.042 105.558 227.331C105.507 227.616 105.481 227.907 105.481 228.206V232H104.228ZM115.222 232.21C114.517 232.21 113.913 232.035 113.409 231.685C112.905 231.33 112.515 230.852 112.24 230.25C111.969 229.648 111.834 228.969 111.834 228.213C111.834 227.457 111.969 226.778 112.24 226.176C112.515 225.574 112.905 225.1 113.409 224.755C113.913 224.405 114.515 224.23 115.215 224.23C115.929 224.23 116.528 224.403 117.014 224.748C117.499 225.093 117.865 225.567 118.113 226.169C118.365 226.771 118.491 227.452 118.491 228.213C118.491 228.964 118.365 229.643 118.113 230.25C117.865 230.852 117.499 231.33 117.014 231.685C116.528 232.035 115.931 232.21 115.222 232.21ZM115.376 231.069C115.884 231.069 116.302 230.948 116.629 230.705C116.955 230.458 117.196 230.119 117.35 229.69C117.508 229.256 117.588 228.764 117.588 228.213C117.588 227.653 117.508 227.161 117.35 226.736C117.196 226.307 116.958 225.973 116.636 225.735C116.314 225.492 115.905 225.371 115.411 225.371C114.897 225.371 114.473 225.497 114.137 225.749C113.805 226.001 113.558 226.342 113.395 226.771C113.236 227.2 113.157 227.681 113.157 228.213C113.157 228.75 113.238 229.235 113.402 229.669C113.565 230.098 113.81 230.439 114.137 230.691C114.468 230.943 114.881 231.069 115.376 231.069ZM117.588 232V226.435H117.448V221.92H118.701V232H117.588ZM123.938 232.21C123.196 232.21 122.547 232.047 121.992 231.72C121.441 231.389 121.012 230.929 120.704 230.341C120.396 229.748 120.242 229.058 120.242 228.269C120.242 227.443 120.393 226.729 120.697 226.127C121 225.52 121.422 225.054 121.964 224.727C122.51 224.396 123.149 224.23 123.882 224.23C124.642 224.23 125.289 224.405 125.821 224.755C126.357 225.105 126.759 225.604 127.025 226.253C127.295 226.902 127.412 227.674 127.375 228.57H126.115V228.122C126.101 227.193 125.912 226.5 125.548 226.043C125.184 225.581 124.642 225.35 123.924 225.35C123.154 225.35 122.568 225.597 122.167 226.092C121.765 226.587 121.565 227.296 121.565 228.22C121.565 229.111 121.765 229.802 122.167 230.292C122.568 230.782 123.14 231.027 123.882 231.027C124.381 231.027 124.815 230.913 125.184 230.684C125.552 230.455 125.842 230.126 126.052 229.697L127.249 230.11C126.955 230.777 126.511 231.295 125.919 231.664C125.331 232.028 124.67 232.21 123.938 232.21ZM121.145 228.57V227.569H126.731V228.57H121.145ZM131.789 232.203C130.889 232.203 130.149 232.007 129.57 231.615C128.996 231.218 128.644 230.665 128.513 229.956L129.787 229.753C129.89 230.164 130.126 230.49 130.494 230.733C130.863 230.971 131.32 231.09 131.866 231.09C132.384 231.09 132.79 230.983 133.084 230.768C133.378 230.553 133.525 230.262 133.525 229.893C133.525 229.678 133.476 229.506 133.378 229.375C133.28 229.24 133.077 229.114 132.769 228.997C132.466 228.88 132.006 228.74 131.39 228.577C130.723 228.4 130.198 228.215 129.815 228.024C129.433 227.833 129.16 227.611 128.996 227.359C128.833 227.107 128.751 226.801 128.751 226.442C128.751 225.999 128.873 225.611 129.115 225.28C129.358 224.944 129.696 224.685 130.13 224.503C130.569 224.321 131.078 224.23 131.656 224.23C132.23 224.23 132.744 224.321 133.196 224.503C133.649 224.685 134.013 224.944 134.288 225.28C134.568 225.611 134.734 225.999 134.785 226.442L133.511 226.673C133.451 226.267 133.255 225.947 132.923 225.714C132.597 225.481 132.174 225.357 131.656 225.343C131.166 225.324 130.767 225.411 130.459 225.602C130.156 225.793 130.004 226.052 130.004 226.379C130.004 226.561 130.06 226.717 130.172 226.848C130.289 226.979 130.501 227.102 130.809 227.219C131.122 227.336 131.575 227.469 132.167 227.618C132.835 227.786 133.36 227.97 133.742 228.171C134.13 228.367 134.405 228.6 134.568 228.871C134.732 229.137 134.813 229.466 134.813 229.858C134.813 230.586 134.545 231.16 134.008 231.58C133.472 231.995 132.732 232.203 131.789 232.203ZM136.497 223.103V221.815H137.743V223.103H136.497ZM136.497 232V224.44H137.743V232H136.497ZM142.902 235.57C142.506 235.57 142.118 235.509 141.74 235.388C141.362 235.267 141.015 235.082 140.697 234.835C140.385 234.592 140.123 234.284 139.913 233.911L141.054 233.309C141.241 233.678 141.505 233.946 141.845 234.114C142.191 234.282 142.545 234.366 142.909 234.366C143.39 234.366 143.789 234.277 144.106 234.1C144.424 233.927 144.657 233.668 144.806 233.323C144.96 232.978 145.035 232.548 145.03 232.035V229.97H145.177V224.44H146.283V232.049C146.283 232.254 146.276 232.453 146.262 232.644C146.253 232.835 146.23 233.024 146.192 233.211C146.094 233.748 145.901 234.189 145.611 234.534C145.322 234.884 144.949 235.143 144.491 235.311C144.034 235.484 143.504 235.57 142.902 235.57ZM142.811 232.21C142.107 232.21 141.502 232.035 140.998 231.685C140.494 231.33 140.105 230.852 139.829 230.25C139.559 229.648 139.423 228.969 139.423 228.213C139.423 227.457 139.559 226.778 139.829 226.176C140.105 225.574 140.494 225.1 140.998 224.755C141.502 224.405 142.104 224.23 142.804 224.23C143.518 224.23 144.118 224.403 144.603 224.748C145.089 225.093 145.455 225.567 145.702 226.169C145.954 226.771 146.08 227.452 146.08 228.213C146.08 228.964 145.954 229.643 145.702 230.25C145.455 230.852 145.089 231.33 144.603 231.685C144.118 232.035 143.521 232.21 142.811 232.21ZM142.965 231.069C143.474 231.069 143.892 230.948 144.218 230.705C144.545 230.458 144.785 230.119 144.939 229.69C145.098 229.256 145.177 228.764 145.177 228.213C145.177 227.653 145.098 227.161 144.939 226.736C144.785 226.307 144.547 225.973 144.225 225.735C143.903 225.492 143.495 225.371 143 225.371C142.487 225.371 142.062 225.497 141.726 225.749C141.395 226.001 141.148 226.342 140.984 226.771C140.826 227.2 140.746 227.681 140.746 228.213C140.746 228.75 140.828 229.235 140.991 229.669C141.155 230.098 141.4 230.439 141.726 230.691C142.058 230.943 142.471 231.069 142.965 231.069ZM153.621 232V228.213C153.621 227.854 153.588 227.508 153.523 227.177C153.462 226.846 153.353 226.549 153.194 226.288C153.04 226.022 152.83 225.812 152.564 225.658C152.303 225.504 151.971 225.427 151.57 225.427C151.257 225.427 150.973 225.481 150.716 225.588C150.464 225.691 150.247 225.849 150.065 226.064C149.883 226.279 149.741 226.549 149.638 226.876C149.54 227.198 149.491 227.578 149.491 228.017L148.672 227.765C148.672 227.032 148.803 226.405 149.064 225.882C149.33 225.355 149.701 224.951 150.177 224.671C150.658 224.386 151.222 224.244 151.871 224.244C152.361 224.244 152.779 224.321 153.124 224.475C153.469 224.629 153.756 224.834 153.985 225.091C154.214 225.343 154.393 225.628 154.524 225.945C154.655 226.258 154.746 226.577 154.797 226.904C154.853 227.226 154.881 227.532 154.881 227.821V232H153.621ZM148.231 232V224.44H149.351V226.463H149.491V232H148.231ZM156.841 223.103V221.815H158.087V223.103H156.841ZM156.841 232V224.44H158.087V232H156.841ZM165.57 232V228.213C165.57 227.854 165.537 227.508 165.472 227.177C165.411 226.846 165.302 226.549 165.143 226.288C164.989 226.022 164.779 225.812 164.513 225.658C164.252 225.504 163.92 225.427 163.519 225.427C163.206 225.427 162.922 225.481 162.665 225.588C162.413 225.691 162.196 225.849 162.014 226.064C161.832 226.279 161.69 226.549 161.587 226.876C161.489 227.198 161.44 227.578 161.44 228.017L160.621 227.765C160.621 227.032 160.752 226.405 161.013 225.882C161.279 225.355 161.65 224.951 162.126 224.671C162.607 224.386 163.171 224.244 163.82 224.244C164.31 224.244 164.728 224.321 165.073 224.475C165.418 224.629 165.705 224.834 165.934 225.091C166.163 225.343 166.342 225.628 166.473 225.945C166.604 226.258 166.695 226.577 166.746 226.904C166.802 227.226 166.83 227.532 166.83 227.821V232H165.57ZM160.18 232V224.44H161.3V226.463H161.44V232H160.18ZM171.709 235.57C171.312 235.57 170.925 235.509 170.547 235.388C170.169 235.267 169.821 235.082 169.504 234.835C169.191 234.592 168.93 234.284 168.72 233.911L169.861 233.309C170.048 233.678 170.311 233.946 170.652 234.114C170.997 234.282 171.352 234.366 171.716 234.366C172.197 234.366 172.596 234.277 172.913 234.1C173.23 233.927 173.464 233.668 173.613 233.323C173.767 232.978 173.842 232.548 173.837 232.035V229.97H173.984V224.44H175.09V232.049C175.09 232.254 175.083 232.453 175.069 232.644C175.06 232.835 175.036 233.024 174.999 233.211C174.901 233.748 174.707 234.189 174.418 234.534C174.129 234.884 173.755 235.143 173.298 235.311C172.841 235.484 172.311 235.57 171.709 235.57ZM171.618 232.21C170.913 232.21 170.309 232.035 169.805 231.685C169.301 231.33 168.911 230.852 168.636 230.25C168.365 229.648 168.23 228.969 168.23 228.213C168.23 227.457 168.365 226.778 168.636 226.176C168.911 225.574 169.301 225.1 169.805 224.755C170.309 224.405 170.911 224.23 171.611 224.23C172.325 224.23 172.925 224.403 173.41 224.748C173.895 225.093 174.262 225.567 174.509 226.169C174.761 226.771 174.887 227.452 174.887 228.213C174.887 228.964 174.761 229.643 174.509 230.25C174.262 230.852 173.895 231.33 173.41 231.685C172.925 232.035 172.327 232.21 171.618 232.21ZM171.772 231.069C172.281 231.069 172.698 230.948 173.025 230.705C173.352 230.458 173.592 230.119 173.746 229.69C173.905 229.256 173.984 228.764 173.984 228.213C173.984 227.653 173.905 227.161 173.746 226.736C173.592 226.307 173.354 225.973 173.032 225.735C172.71 225.492 172.302 225.371 171.807 225.371C171.294 225.371 170.869 225.497 170.533 225.749C170.202 226.001 169.954 226.342 169.791 226.771C169.632 227.2 169.553 227.681 169.553 228.213C169.553 228.75 169.635 229.235 169.798 229.669C169.961 230.098 170.206 230.439 170.533 230.691C170.864 230.943 171.277 231.069 171.772 231.069ZM183.032 232.21C182.267 232.21 181.616 232.04 181.079 231.699C180.547 231.354 180.141 230.88 179.861 230.278C179.581 229.676 179.437 228.99 179.427 228.22C179.437 227.431 179.584 226.738 179.868 226.141C180.158 225.539 180.571 225.07 181.107 224.734C181.644 224.398 182.29 224.23 183.046 224.23C183.844 224.23 184.53 224.426 185.104 224.818C185.683 225.21 186.07 225.747 186.266 226.428L185.034 226.799C184.876 226.36 184.617 226.02 184.257 225.777C183.903 225.534 183.494 225.413 183.032 225.413C182.514 225.413 182.087 225.534 181.751 225.777C181.415 226.015 181.166 226.346 181.002 226.771C180.839 227.191 180.755 227.674 180.75 228.22C180.76 229.06 180.953 229.739 181.331 230.257C181.714 230.77 182.281 231.027 183.032 231.027C183.527 231.027 183.938 230.915 184.264 230.691C184.591 230.462 184.838 230.133 185.006 229.704L186.266 230.033C186.005 230.738 185.597 231.277 185.041 231.65C184.486 232.023 183.816 232.21 183.032 232.21ZM187.63 232V221.71H188.876V232H187.63ZM194.252 232.21C193.51 232.21 192.862 232.047 192.306 231.72C191.756 231.389 191.326 230.929 191.018 230.341C190.71 229.748 190.556 229.058 190.556 228.269C190.556 227.443 190.708 226.729 191.011 226.127C191.315 225.52 191.737 225.054 192.278 224.727C192.824 224.396 193.464 224.23 194.196 224.23C194.957 224.23 195.603 224.405 196.135 224.755C196.672 225.105 197.073 225.604 197.339 226.253C197.61 226.902 197.727 227.674 197.689 228.57H196.429V228.122C196.415 227.193 196.226 226.5 195.862 226.043C195.498 225.581 194.957 225.35 194.238 225.35C193.468 225.35 192.883 225.597 192.481 226.092C192.08 226.587 191.879 227.296 191.879 228.22C191.879 229.111 192.08 229.802 192.481 230.292C192.883 230.782 193.454 231.027 194.196 231.027C194.696 231.027 195.13 230.913 195.498 230.684C195.867 230.455 196.156 230.126 196.366 229.697L197.563 230.11C197.269 230.777 196.826 231.295 196.233 231.664C195.645 232.028 194.985 232.21 194.252 232.21ZM191.459 228.57V227.569H197.045V228.57H191.459ZM201.26 232.21C200.695 232.21 200.222 232.107 199.839 231.902C199.461 231.692 199.174 231.417 198.978 231.076C198.787 230.735 198.691 230.362 198.691 229.956C198.691 229.559 198.766 229.216 198.915 228.927C199.069 228.633 199.284 228.39 199.559 228.199C199.834 228.003 200.163 227.849 200.546 227.737C200.905 227.639 201.307 227.555 201.75 227.485C202.198 227.41 202.651 227.343 203.108 227.282C203.565 227.221 203.992 227.163 204.389 227.107L203.941 227.366C203.955 226.694 203.82 226.197 203.535 225.875C203.255 225.553 202.77 225.392 202.079 225.392C201.622 225.392 201.22 225.497 200.875 225.707C200.534 225.912 200.294 226.248 200.154 226.715L198.971 226.358C199.153 225.695 199.505 225.175 200.028 224.797C200.551 224.419 201.239 224.23 202.093 224.23C202.779 224.23 203.367 224.354 203.857 224.601C204.352 224.844 204.706 225.212 204.921 225.707C205.028 225.94 205.096 226.195 205.124 226.47C205.152 226.741 205.166 227.025 205.166 227.324V232H204.06V230.187L204.319 230.355C204.034 230.966 203.635 231.428 203.122 231.741C202.613 232.054 201.993 232.21 201.26 232.21ZM201.449 231.167C201.897 231.167 202.284 231.088 202.611 230.929C202.942 230.766 203.208 230.553 203.409 230.292C203.61 230.026 203.74 229.737 203.801 229.424C203.871 229.191 203.908 228.932 203.913 228.647C203.922 228.358 203.927 228.136 203.927 227.982L204.361 228.171C203.955 228.227 203.556 228.281 203.164 228.332C202.772 228.383 202.401 228.439 202.051 228.5C201.701 228.556 201.386 228.624 201.106 228.703C200.901 228.768 200.707 228.852 200.525 228.955C200.348 229.058 200.203 229.191 200.091 229.354C199.984 229.513 199.93 229.711 199.93 229.949C199.93 230.154 199.981 230.35 200.084 230.537C200.191 230.724 200.355 230.875 200.574 230.992C200.798 231.109 201.09 231.167 201.449 231.167ZM206.986 232V224.44H208.099V226.267L207.917 226.029C208.006 225.796 208.12 225.581 208.26 225.385C208.405 225.189 208.566 225.028 208.743 224.902C208.939 224.743 209.161 224.622 209.408 224.538C209.655 224.454 209.907 224.405 210.164 224.391C210.421 224.372 210.661 224.389 210.885 224.44V225.609C210.624 225.539 210.337 225.52 210.024 225.553C209.711 225.586 209.422 225.7 209.156 225.896C208.913 226.069 208.724 226.279 208.589 226.526C208.458 226.773 208.367 227.042 208.316 227.331C208.265 227.616 208.239 227.907 208.239 228.206V232H206.986ZM217.867 232.203C216.967 232.203 216.227 232.007 215.648 231.615C215.074 231.218 214.722 230.665 214.591 229.956L215.865 229.753C215.968 230.164 216.204 230.49 216.572 230.733C216.941 230.971 217.398 231.09 217.944 231.09C218.462 231.09 218.868 230.983 219.162 230.768C219.456 230.553 219.603 230.262 219.603 229.893C219.603 229.678 219.554 229.506 219.456 229.375C219.358 229.24 219.155 229.114 218.847 228.997C218.544 228.88 218.084 228.74 217.468 228.577C216.801 228.4 216.276 228.215 215.893 228.024C215.511 227.833 215.238 227.611 215.074 227.359C214.911 227.107 214.829 226.801 214.829 226.442C214.829 225.999 214.951 225.611 215.193 225.28C215.436 224.944 215.774 224.685 216.208 224.503C216.647 224.321 217.156 224.23 217.734 224.23C218.308 224.23 218.822 224.321 219.274 224.503C219.727 224.685 220.091 224.944 220.366 225.28C220.646 225.611 220.812 225.999 220.863 226.442L219.589 226.673C219.529 226.267 219.333 225.947 219.001 225.714C218.675 225.481 218.252 225.357 217.734 225.343C217.244 225.324 216.845 225.411 216.537 225.602C216.234 225.793 216.082 226.052 216.082 226.379C216.082 226.561 216.138 226.717 216.25 226.848C216.367 226.979 216.579 227.102 216.887 227.219C217.2 227.336 217.653 227.469 218.245 227.618C218.913 227.786 219.438 227.97 219.82 228.171C220.208 228.367 220.483 228.6 220.646 228.871C220.81 229.137 220.891 229.466 220.891 229.858C220.891 230.586 220.623 231.16 220.086 231.58C219.55 231.995 218.81 232.203 217.867 232.203ZM225.655 232.21C224.904 232.21 224.255 232.04 223.709 231.699C223.168 231.358 222.75 230.887 222.456 230.285C222.162 229.683 222.015 228.992 222.015 228.213C222.015 227.42 222.165 226.724 222.463 226.127C222.762 225.53 223.184 225.065 223.73 224.734C224.276 224.398 224.918 224.23 225.655 224.23C226.411 224.23 227.062 224.4 227.608 224.741C228.154 225.077 228.572 225.546 228.861 226.148C229.155 226.745 229.302 227.434 229.302 228.213C229.302 229.002 229.155 229.697 228.861 230.299C228.567 230.896 228.147 231.365 227.601 231.706C227.055 232.042 226.407 232.21 225.655 232.21ZM225.655 231.027C226.439 231.027 227.023 230.766 227.405 230.243C227.788 229.72 227.979 229.044 227.979 228.213C227.979 227.359 227.786 226.68 227.398 226.176C227.011 225.667 226.43 225.413 225.655 225.413C225.128 225.413 224.694 225.532 224.353 225.77C224.013 226.008 223.758 226.337 223.59 226.757C223.422 227.177 223.338 227.662 223.338 228.213C223.338 229.062 223.534 229.744 223.926 230.257C224.318 230.77 224.895 231.027 225.655 231.027ZM230.983 232V221.71H232.229V232H230.983ZM237.2 232.196C236.714 232.196 236.297 232.119 235.947 231.965C235.601 231.811 235.314 231.606 235.086 231.349C234.857 231.092 234.677 230.808 234.547 230.495C234.416 230.182 234.323 229.863 234.267 229.536C234.215 229.209 234.19 228.904 234.19 228.619V224.44H235.45V228.227C235.45 228.582 235.482 228.925 235.548 229.256C235.613 229.587 235.723 229.886 235.877 230.152C236.035 230.418 236.245 230.628 236.507 230.782C236.773 230.936 237.104 231.013 237.501 231.013C237.813 231.013 238.098 230.959 238.355 230.852C238.611 230.745 238.831 230.586 239.013 230.376C239.195 230.161 239.335 229.891 239.433 229.564C239.531 229.237 239.58 228.857 239.58 228.423L240.399 228.675C240.399 229.403 240.266 230.031 240 230.558C239.738 231.085 239.367 231.491 238.887 231.776C238.411 232.056 237.848 232.196 237.2 232.196ZM239.72 232V229.977H239.58V224.44H240.833V232H239.72ZM247.014 232C246.566 232.089 246.122 232.124 245.684 232.105C245.25 232.091 244.862 232.005 244.522 231.846C244.181 231.683 243.922 231.431 243.745 231.09C243.595 230.791 243.514 230.49 243.5 230.187C243.49 229.879 243.486 229.531 243.486 229.144V222.34H244.732V229.088C244.732 229.396 244.734 229.66 244.739 229.879C244.748 230.098 244.797 230.287 244.886 230.446C245.054 230.745 245.32 230.92 245.684 230.971C246.052 231.022 246.496 231.008 247.014 230.929V232ZM241.953 225.469V224.44H247.014V225.469H241.953ZM248.688 223.103V221.815H249.934V223.103H248.688ZM248.688 232V224.44H249.934V232H248.688ZM255.255 232.21C254.503 232.21 253.855 232.04 253.309 231.699C252.767 231.358 252.35 230.887 252.056 230.285C251.762 229.683 251.615 228.992 251.615 228.213C251.615 227.42 251.764 226.724 252.063 226.127C252.361 225.53 252.784 225.065 253.33 224.734C253.876 224.398 254.517 224.23 255.255 224.23C256.011 224.23 256.662 224.4 257.208 224.741C257.754 225.077 258.171 225.546 258.461 226.148C258.755 226.745 258.902 227.434 258.902 228.213C258.902 229.002 258.755 229.697 258.461 230.299C258.167 230.896 257.747 231.365 257.201 231.706C256.655 232.042 256.006 232.21 255.255 232.21ZM255.255 231.027C256.039 231.027 256.622 230.766 257.005 230.243C257.387 229.72 257.579 229.044 257.579 228.213C257.579 227.359 257.385 226.68 256.998 226.176C256.61 225.667 256.029 225.413 255.255 225.413C254.727 225.413 254.293 225.532 253.953 225.77C253.612 226.008 253.358 226.337 253.19 226.757C253.022 227.177 252.938 227.662 252.938 228.213C252.938 229.062 253.134 229.744 253.526 230.257C253.918 230.77 254.494 231.027 255.255 231.027ZM265.826 232V228.213C265.826 227.854 265.793 227.508 265.728 227.177C265.667 226.846 265.558 226.549 265.399 226.288C265.245 226.022 265.035 225.812 264.769 225.658C264.508 225.504 264.176 225.427 263.775 225.427C263.462 225.427 263.178 225.481 262.921 225.588C262.669 225.691 262.452 225.849 262.27 226.064C262.088 226.279 261.946 226.549 261.843 226.876C261.745 227.198 261.696 227.578 261.696 228.017L260.877 227.765C260.877 227.032 261.008 226.405 261.269 225.882C261.535 225.355 261.906 224.951 262.382 224.671C262.863 224.386 263.427 224.244 264.076 224.244C264.566 224.244 264.984 224.321 265.329 224.475C265.674 224.629 265.961 224.834 266.19 225.091C266.419 225.343 266.598 225.628 266.729 225.945C266.86 226.258 266.951 226.577 267.002 226.904C267.058 227.226 267.086 227.532 267.086 227.821V232H265.826ZM260.436 232V224.44H261.556V226.463H261.696V232H260.436ZM271.762 232.203C270.861 232.203 270.122 232.007 269.543 231.615C268.969 231.218 268.617 230.665 268.486 229.956L269.76 229.753C269.863 230.164 270.098 230.49 270.467 230.733C270.836 230.971 271.293 231.09 271.839 231.09C272.357 231.09 272.763 230.983 273.057 230.768C273.351 230.553 273.498 230.262 273.498 229.893C273.498 229.678 273.449 229.506 273.351 229.375C273.253 229.24 273.05 229.114 272.742 228.997C272.439 228.88 271.979 228.74 271.363 228.577C270.696 228.4 270.171 228.215 269.788 228.024C269.405 227.833 269.132 227.611 268.969 227.359C268.806 227.107 268.724 226.801 268.724 226.442C268.724 225.999 268.845 225.611 269.088 225.28C269.331 224.944 269.669 224.685 270.103 224.503C270.542 224.321 271.05 224.23 271.629 224.23C272.203 224.23 272.716 224.321 273.169 224.503C273.622 224.685 273.986 224.944 274.261 225.28C274.541 225.611 274.707 225.999 274.758 226.442L273.484 226.673C273.423 226.267 273.227 225.947 272.896 225.714C272.569 225.481 272.147 225.357 271.629 225.343C271.139 225.324 270.74 225.411 270.432 225.602C270.129 225.793 269.977 226.052 269.977 226.379C269.977 226.561 270.033 226.717 270.145 226.848C270.262 226.979 270.474 227.102 270.782 227.219C271.095 227.336 271.547 227.469 272.14 227.618C272.807 227.786 273.332 227.97 273.715 228.171C274.102 228.367 274.378 228.6 274.541 228.871C274.704 229.137 274.786 229.466 274.786 229.858C274.786 230.586 274.518 231.16 273.981 231.58C273.444 231.995 272.705 232.203 271.762 232.203ZM283.353 232C282.905 232.089 282.462 232.124 282.023 232.105C281.589 232.091 281.202 232.005 280.861 231.846C280.521 231.683 280.262 231.431 280.084 231.09C279.935 230.791 279.853 230.49 279.839 230.187C279.83 229.879 279.825 229.531 279.825 229.144V222.34H281.071V229.088C281.071 229.396 281.074 229.66 281.078 229.879C281.088 230.098 281.137 230.287 281.225 230.446C281.393 230.745 281.659 230.92 282.023 230.971C282.392 231.022 282.835 231.008 283.353 230.929V232ZM278.292 225.469V224.44H283.353V225.469H278.292ZM287.794 232.21C287.043 232.21 286.394 232.04 285.848 231.699C285.307 231.358 284.889 230.887 284.595 230.285C284.301 229.683 284.154 228.992 284.154 228.213C284.154 227.42 284.303 226.724 284.602 226.127C284.901 225.53 285.323 225.065 285.869 224.734C286.415 224.398 287.057 224.23 287.794 224.23C288.55 224.23 289.201 224.4 289.747 224.741C290.293 225.077 290.711 225.546 291 226.148C291.294 226.745 291.441 227.434 291.441 228.213C291.441 229.002 291.294 229.697 291 230.299C290.706 230.896 290.286 231.365 289.74 231.706C289.194 232.042 288.545 232.21 287.794 232.21ZM287.794 231.027C288.578 231.027 289.161 230.766 289.544 230.243C289.927 229.72 290.118 229.044 290.118 228.213C290.118 227.359 289.924 226.68 289.537 226.176C289.15 225.667 288.569 225.413 287.794 225.413C287.267 225.413 286.833 225.532 286.492 225.77C286.151 226.008 285.897 226.337 285.729 226.757C285.561 227.177 285.477 227.662 285.477 228.213C285.477 229.062 285.673 229.744 286.065 230.257C286.457 230.77 287.033 231.027 287.794 231.027ZM297.934 232.21C297.369 232.21 296.895 232.107 296.513 231.902C296.135 231.692 295.848 231.417 295.652 231.076C295.46 230.735 295.365 230.362 295.365 229.956C295.365 229.559 295.439 229.216 295.589 228.927C295.743 228.633 295.957 228.39 296.233 228.199C296.508 228.003 296.837 227.849 297.22 227.737C297.579 227.639 297.98 227.555 298.424 227.485C298.872 227.41 299.324 227.343 299.782 227.282C300.239 227.221 300.666 227.163 301.063 227.107L300.615 227.366C300.629 226.694 300.493 226.197 300.209 225.875C299.929 225.553 299.443 225.392 298.753 225.392C298.295 225.392 297.894 225.497 297.549 225.707C297.208 225.912 296.968 226.248 296.828 226.715L295.645 226.358C295.827 225.695 296.179 225.175 296.702 224.797C297.224 224.419 297.913 224.23 298.767 224.23C299.453 224.23 300.041 224.354 300.531 224.601C301.025 224.844 301.38 225.212 301.595 225.707C301.702 225.94 301.77 226.195 301.798 226.47C301.826 226.741 301.84 227.025 301.84 227.324V232H300.734V230.187L300.993 230.355C300.708 230.966 300.309 231.428 299.796 231.741C299.287 232.054 298.666 232.21 297.934 232.21ZM298.123 231.167C298.571 231.167 298.958 231.088 299.285 230.929C299.616 230.766 299.882 230.553 300.083 230.292C300.283 230.026 300.414 229.737 300.475 229.424C300.545 229.191 300.582 228.932 300.587 228.647C300.596 228.358 300.601 228.136 300.601 227.982L301.035 228.171C300.629 228.227 300.23 228.281 299.838 228.332C299.446 228.383 299.075 228.439 298.725 228.5C298.375 228.556 298.06 228.624 297.78 228.703C297.574 228.768 297.381 228.852 297.199 228.955C297.021 229.058 296.877 229.191 296.765 229.354C296.657 229.513 296.604 229.711 296.604 229.949C296.604 230.154 296.655 230.35 296.758 230.537C296.865 230.724 297.028 230.875 297.248 230.992C297.472 231.109 297.763 231.167 298.123 231.167ZM312.697 232L312.704 227.163C312.704 226.598 312.552 226.157 312.249 225.84C311.95 225.518 311.56 225.357 311.08 225.357C310.8 225.357 310.534 225.422 310.282 225.553C310.03 225.679 309.824 225.88 309.666 226.155C309.507 226.426 309.428 226.773 309.428 227.198L308.77 226.932C308.76 226.395 308.87 225.926 309.099 225.525C309.332 225.119 309.649 224.804 310.051 224.58C310.452 224.356 310.905 224.244 311.409 224.244C312.197 224.244 312.818 224.484 313.271 224.965C313.723 225.441 313.95 226.083 313.95 226.89L313.943 232H312.697ZM303.653 232V224.44H304.766V226.463H304.906V232H303.653ZM308.182 232L308.189 227.212C308.189 226.633 308.039 226.181 307.741 225.854C307.442 225.523 307.045 225.357 306.551 225.357C306.061 225.357 305.664 225.525 305.361 225.861C305.057 226.197 304.906 226.643 304.906 227.198L304.248 226.806C304.248 226.316 304.364 225.877 304.598 225.49C304.831 225.103 305.148 224.799 305.55 224.58C305.951 224.356 306.406 224.244 306.915 224.244C307.423 224.244 307.867 224.351 308.245 224.566C308.623 224.781 308.914 225.089 309.12 225.49C309.325 225.887 309.428 226.36 309.428 226.911L309.421 232H308.182ZM319.245 232.21C318.536 232.21 317.938 232.035 317.453 231.685C316.968 231.33 316.599 230.852 316.347 230.25C316.1 229.643 315.976 228.964 315.976 228.213C315.976 227.452 316.1 226.771 316.347 226.169C316.599 225.567 316.968 225.093 317.453 224.748C317.943 224.403 318.543 224.23 319.252 224.23C319.952 224.23 320.554 224.405 321.058 224.755C321.567 225.1 321.956 225.574 322.227 226.176C322.498 226.778 322.633 227.457 322.633 228.213C322.633 228.969 322.498 229.648 322.227 230.25C321.956 230.852 321.567 231.33 321.058 231.685C320.554 232.035 319.95 232.21 319.245 232.21ZM315.766 232V221.92H317.019V226.435H316.879V232H315.766ZM319.091 231.069C319.59 231.069 320.003 230.943 320.33 230.691C320.657 230.439 320.902 230.098 321.065 229.669C321.228 229.235 321.31 228.75 321.31 228.213C321.31 227.681 321.228 227.2 321.065 226.771C320.906 226.342 320.659 226.001 320.323 225.749C319.992 225.497 319.569 225.371 319.056 225.371C318.566 225.371 318.16 225.492 317.838 225.735C317.516 225.973 317.276 226.307 317.117 226.736C316.958 227.161 316.879 227.653 316.879 228.213C316.879 228.764 316.956 229.256 317.11 229.69C317.269 230.119 317.511 230.458 317.838 230.705C318.165 230.948 318.582 231.069 319.091 231.069ZM324.308 223.103V221.815H325.554V223.103H324.308ZM324.308 232V224.44H325.554V232H324.308ZM330.713 235.57C330.316 235.57 329.929 235.509 329.551 235.388C329.173 235.267 328.825 235.082 328.508 234.835C328.195 234.592 327.934 234.284 327.724 233.911L328.865 233.309C329.052 233.678 329.315 233.946 329.656 234.114C330.001 234.282 330.356 234.366 330.72 234.366C331.201 234.366 331.6 234.277 331.917 234.1C332.234 233.927 332.468 233.668 332.617 233.323C332.771 232.978 332.846 232.548 332.841 232.035V229.97H332.988V224.44H334.094V232.049C334.094 232.254 334.087 232.453 334.073 232.644C334.064 232.835 334.04 233.024 334.003 233.211C333.905 233.748 333.711 234.189 333.422 234.534C333.133 234.884 332.759 235.143 332.302 235.311C331.845 235.484 331.315 235.57 330.713 235.57ZM330.622 232.21C329.917 232.21 329.313 232.035 328.809 231.685C328.305 231.33 327.915 230.852 327.64 230.25C327.369 229.648 327.234 228.969 327.234 228.213C327.234 227.457 327.369 226.778 327.64 226.176C327.915 225.574 328.305 225.1 328.809 224.755C329.313 224.405 329.915 224.23 330.615 224.23C331.329 224.23 331.929 224.403 332.414 224.748C332.899 225.093 333.266 225.567 333.513 226.169C333.765 226.771 333.891 227.452 333.891 228.213C333.891 228.964 333.765 229.643 333.513 230.25C333.266 230.852 332.899 231.33 332.414 231.685C331.929 232.035 331.331 232.21 330.622 232.21ZM330.776 231.069C331.285 231.069 331.702 230.948 332.029 230.705C332.356 230.458 332.596 230.119 332.75 229.69C332.909 229.256 332.988 228.764 332.988 228.213C332.988 227.653 332.909 227.161 332.75 226.736C332.596 226.307 332.358 225.973 332.036 225.735C331.714 225.492 331.306 225.371 330.811 225.371C330.298 225.371 329.873 225.497 329.537 225.749C329.206 226.001 328.958 226.342 328.795 226.771C328.636 227.2 328.557 227.681 328.557 228.213C328.557 228.75 328.639 229.235 328.802 229.669C328.965 230.098 329.21 230.439 329.537 230.691C329.868 230.943 330.281 231.069 330.776 231.069ZM338.918 232.196C338.433 232.196 338.015 232.119 337.665 231.965C337.32 231.811 337.033 231.606 336.804 231.349C336.576 231.092 336.396 230.808 336.265 230.495C336.135 230.182 336.041 229.863 335.985 229.536C335.934 229.209 335.908 228.904 335.908 228.619V224.44H337.168V228.227C337.168 228.582 337.201 228.925 337.266 229.256C337.332 229.587 337.441 229.886 337.595 230.152C337.754 230.418 337.964 230.628 338.225 230.782C338.491 230.936 338.823 231.013 339.219 231.013C339.532 231.013 339.817 230.959 340.073 230.852C340.33 230.745 340.549 230.586 340.731 230.376C340.913 230.161 341.053 229.891 341.151 229.564C341.249 229.237 341.298 228.857 341.298 228.423L342.117 228.675C342.117 229.403 341.984 230.031 341.718 230.558C341.457 231.085 341.086 231.491 340.605 231.776C340.129 232.056 339.567 232.196 338.918 232.196ZM341.438 232V229.977H341.298V224.44H342.551V232H341.438ZM347.731 232.21C346.98 232.21 346.331 232.04 345.785 231.699C345.244 231.358 344.826 230.887 344.532 230.285C344.238 229.683 344.091 228.992 344.091 228.213C344.091 227.42 344.241 226.724 344.539 226.127C344.838 225.53 345.26 225.065 345.806 224.734C346.352 224.398 346.994 224.23 347.731 224.23C348.487 224.23 349.138 224.4 349.684 224.741C350.23 225.077 350.648 225.546 350.937 226.148C351.231 226.745 351.378 227.434 351.378 228.213C351.378 229.002 351.231 229.697 350.937 230.299C350.643 230.896 350.223 231.365 349.677 231.706C349.131 232.042 348.483 232.21 347.731 232.21ZM347.731 231.027C348.515 231.027 349.099 230.766 349.481 230.243C349.864 229.72 350.055 229.044 350.055 228.213C350.055 227.359 349.862 226.68 349.474 226.176C349.087 225.667 348.506 225.413 347.731 225.413C347.204 225.413 346.77 225.532 346.429 225.77C346.089 226.008 345.834 226.337 345.666 226.757C345.498 227.177 345.414 227.662 345.414 228.213C345.414 229.062 345.61 229.744 346.002 230.257C346.394 230.77 346.971 231.027 347.731 231.027ZM355.79 232.196C355.304 232.196 354.887 232.119 354.537 231.965C354.191 231.811 353.904 231.606 353.676 231.349C353.447 231.092 353.267 230.808 353.137 230.495C353.006 230.182 352.913 229.863 352.857 229.536C352.805 229.209 352.78 228.904 352.78 228.619V224.44H354.04V228.227C354.04 228.582 354.072 228.925 354.138 229.256C354.203 229.587 354.313 229.886 354.467 230.152C354.625 230.418 354.835 230.628 355.097 230.782C355.363 230.936 355.694 231.013 356.091 231.013C356.403 231.013 356.688 230.959 356.945 230.852C357.201 230.745 357.421 230.586 357.603 230.376C357.785 230.161 357.925 229.891 358.023 229.564C358.121 229.237 358.17 228.857 358.17 228.423L358.989 228.675C358.989 229.403 358.856 230.031 358.59 230.558C358.328 231.085 357.957 231.491 357.477 231.776C357.001 232.056 356.438 232.196 355.79 232.196ZM358.31 232V229.977H358.17V224.44H359.423V232H358.31ZM364.238 232.203C363.338 232.203 362.598 232.007 362.019 231.615C361.445 231.218 361.093 230.665 360.962 229.956L362.236 229.753C362.339 230.164 362.575 230.49 362.943 230.733C363.312 230.971 363.769 231.09 364.315 231.09C364.833 231.09 365.239 230.983 365.533 230.768C365.827 230.553 365.974 230.262 365.974 229.893C365.974 229.678 365.925 229.506 365.827 229.375C365.729 229.24 365.526 229.114 365.218 228.997C364.915 228.88 364.455 228.74 363.839 228.577C363.172 228.4 362.647 228.215 362.264 228.024C361.882 227.833 361.609 227.611 361.445 227.359C361.282 227.107 361.2 226.801 361.2 226.442C361.2 225.999 361.322 225.611 361.564 225.28C361.807 224.944 362.145 224.685 362.579 224.503C363.018 224.321 363.527 224.23 364.105 224.23C364.679 224.23 365.193 224.321 365.645 224.503C366.098 224.685 366.462 224.944 366.737 225.28C367.017 225.611 367.183 225.999 367.234 226.442L365.96 226.673C365.9 226.267 365.704 225.947 365.372 225.714C365.046 225.481 364.623 225.357 364.105 225.343C363.615 225.324 363.216 225.411 362.908 225.602C362.605 225.793 362.453 226.052 362.453 226.379C362.453 226.561 362.509 226.717 362.621 226.848C362.738 226.979 362.95 227.102 363.258 227.219C363.571 227.336 364.024 227.469 364.616 227.618C365.284 227.786 365.809 227.97 366.191 228.171C366.579 228.367 366.854 228.6 367.017 228.871C367.181 229.137 367.262 229.466 367.262 229.858C367.262 230.586 366.994 231.16 366.457 231.58C365.921 231.995 365.181 232.203 364.238 232.203ZM375.081 232.21C374.372 232.21 373.774 232.035 373.289 231.685C372.804 231.33 372.435 230.852 372.183 230.25C371.936 229.643 371.812 228.964 371.812 228.213C371.812 227.452 371.936 226.771 372.183 226.169C372.435 225.567 372.804 225.093 373.289 224.748C373.779 224.403 374.379 224.23 375.088 224.23C375.788 224.23 376.39 224.405 376.894 224.755C377.403 225.1 377.792 225.574 378.063 226.176C378.334 226.778 378.469 227.457 378.469 228.213C378.469 228.969 378.334 229.648 378.063 230.25C377.792 230.852 377.403 231.33 376.894 231.685C376.39 232.035 375.786 232.21 375.081 232.21ZM371.602 235.36V224.44H372.715V230.005H372.855V235.36H371.602ZM374.927 231.069C375.426 231.069 375.839 230.943 376.166 230.691C376.493 230.439 376.738 230.098 376.901 229.669C377.064 229.235 377.146 228.75 377.146 228.213C377.146 227.681 377.064 227.2 376.901 226.771C376.742 226.342 376.495 226.001 376.159 225.749C375.828 225.497 375.405 225.371 374.892 225.371C374.402 225.371 373.996 225.492 373.674 225.735C373.352 225.973 373.112 226.307 372.953 226.736C372.794 227.161 372.715 227.653 372.715 228.213C372.715 228.764 372.792 229.256 372.946 229.69C373.105 230.119 373.347 230.458 373.674 230.705C374.001 230.948 374.418 231.069 374.927 231.069ZM380.004 232V224.44H381.117V226.267L380.935 226.029C381.023 225.796 381.138 225.581 381.278 225.385C381.422 225.189 381.583 225.028 381.761 224.902C381.957 224.743 382.178 224.622 382.426 224.538C382.673 224.454 382.925 224.405 383.182 224.391C383.438 224.372 383.679 224.389 383.903 224.44V225.609C383.641 225.539 383.354 225.52 383.042 225.553C382.729 225.586 382.44 225.7 382.174 225.896C381.931 226.069 381.742 226.279 381.607 226.526C381.476 226.773 381.385 227.042 381.334 227.331C381.282 227.616 381.257 227.907 381.257 228.206V232H380.004ZM388.309 232.21C387.558 232.21 386.909 232.04 386.363 231.699C385.822 231.358 385.404 230.887 385.11 230.285C384.816 229.683 384.669 228.992 384.669 228.213C384.669 227.42 384.819 226.724 385.117 226.127C385.416 225.53 385.838 225.065 386.384 224.734C386.93 224.398 387.572 224.23 388.309 224.23C389.065 224.23 389.716 224.4 390.262 224.741C390.808 225.077 391.226 225.546 391.515 226.148C391.809 226.745 391.956 227.434 391.956 228.213C391.956 229.002 391.809 229.697 391.515 230.299C391.221 230.896 390.801 231.365 390.255 231.706C389.709 232.042 389.061 232.21 388.309 232.21ZM388.309 231.027C389.093 231.027 389.677 230.766 390.059 230.243C390.442 229.72 390.633 229.044 390.633 228.213C390.633 227.359 390.44 226.68 390.052 226.176C389.665 225.667 389.084 225.413 388.309 225.413C387.782 225.413 387.348 225.532 387.007 225.77C386.667 226.008 386.412 226.337 386.244 226.757C386.076 227.177 385.992 227.662 385.992 228.213C385.992 229.062 386.188 229.744 386.58 230.257C386.972 230.77 387.549 231.027 388.309 231.027ZM396.97 232.21C396.26 232.21 395.663 232.035 395.178 231.685C394.692 231.33 394.324 230.852 394.072 230.25C393.824 229.643 393.701 228.964 393.701 228.213C393.701 227.452 393.824 226.771 394.072 226.169C394.324 225.567 394.692 225.093 395.178 224.748C395.668 224.403 396.267 224.23 396.977 224.23C397.677 224.23 398.279 224.405 398.783 224.755C399.291 225.1 399.681 225.574 399.952 226.176C400.222 226.778 400.358 227.457 400.358 228.213C400.358 228.969 400.222 229.648 399.952 230.25C399.681 230.852 399.291 231.33 398.783 231.685C398.279 232.035 397.674 232.21 396.97 232.21ZM393.491 232V221.92H394.744V226.435H394.604V232H393.491ZM396.816 231.069C397.315 231.069 397.728 230.943 398.055 230.691C398.381 230.439 398.626 230.098 398.79 229.669C398.953 229.235 399.035 228.75 399.035 228.213C399.035 227.681 398.953 227.2 398.79 226.771C398.631 226.342 398.384 226.001 398.048 225.749C397.716 225.497 397.294 225.371 396.781 225.371C396.291 225.371 395.885 225.492 395.563 225.735C395.241 225.973 395 226.307 394.842 226.736C394.683 227.161 394.604 227.653 394.604 228.213C394.604 228.764 394.681 229.256 394.835 229.69C394.993 230.119 395.236 230.458 395.563 230.705C395.889 230.948 396.307 231.069 396.816 231.069ZM402.032 232V221.71H403.278V232H402.032ZM408.655 232.21C407.913 232.21 407.264 232.047 406.709 231.72C406.158 231.389 405.729 230.929 405.421 230.341C405.113 229.748 404.959 229.058 404.959 228.269C404.959 227.443 405.11 226.729 405.414 226.127C405.717 225.52 406.139 225.054 406.681 224.727C407.227 224.396 407.866 224.23 408.599 224.23C409.359 224.23 410.006 224.405 410.538 224.755C411.074 225.105 411.476 225.604 411.742 226.253C412.012 226.902 412.129 227.674 412.092 228.57H410.832V228.122C410.818 227.193 410.629 226.5 410.265 226.043C409.901 225.581 409.359 225.35 408.641 225.35C407.871 225.35 407.285 225.597 406.884 226.092C406.482 226.587 406.282 227.296 406.282 228.22C406.282 229.111 406.482 229.802 406.884 230.292C407.285 230.782 407.857 231.027 408.599 231.027C409.098 231.027 409.532 230.913 409.901 230.684C410.269 230.455 410.559 230.126 410.769 229.697L411.966 230.11C411.672 230.777 411.228 231.295 410.636 231.664C410.048 232.028 409.387 232.21 408.655 232.21ZM405.862 228.57V227.569H411.448V228.57H405.862ZM422.482 232L422.489 227.163C422.489 226.598 422.337 226.157 422.034 225.84C421.735 225.518 421.346 225.357 420.865 225.357C420.585 225.357 420.319 225.422 420.067 225.553C419.815 225.679 419.61 225.88 419.451 226.155C419.292 226.426 419.213 226.773 419.213 227.198L418.555 226.932C418.546 226.395 418.655 225.926 418.884 225.525C419.117 225.119 419.435 224.804 419.836 224.58C420.237 224.356 420.69 224.244 421.194 224.244C421.983 224.244 422.603 224.484 423.056 224.965C423.509 225.441 423.735 226.083 423.735 226.89L423.728 232H422.482ZM413.438 232V224.44H414.551V226.463H414.691V232H413.438ZM417.967 232L417.974 227.212C417.974 226.633 417.825 226.181 417.526 225.854C417.227 225.523 416.831 225.357 416.336 225.357C415.846 225.357 415.449 225.525 415.146 225.861C414.843 226.197 414.691 226.643 414.691 227.198L414.033 226.806C414.033 226.316 414.15 225.877 414.383 225.49C414.616 225.103 414.934 224.799 415.335 224.58C415.736 224.356 416.191 224.244 416.7 224.244C417.209 224.244 417.652 224.351 418.03 224.566C418.408 224.781 418.7 225.089 418.905 225.49C419.11 225.887 419.213 226.36 419.213 226.911L419.206 232H417.967ZM428.414 232.203C427.514 232.203 426.774 232.007 426.195 231.615C425.621 231.218 425.269 230.665 425.138 229.956L426.412 229.753C426.515 230.164 426.751 230.49 427.119 230.733C427.488 230.971 427.945 231.09 428.491 231.09C429.009 231.09 429.415 230.983 429.709 230.768C430.003 230.553 430.15 230.262 430.15 229.893C430.15 229.678 430.101 229.506 430.003 229.375C429.905 229.24 429.702 229.114 429.394 228.997C429.091 228.88 428.631 228.74 428.015 228.577C427.348 228.4 426.823 228.215 426.44 228.024C426.058 227.833 425.785 227.611 425.621 227.359C425.458 227.107 425.376 226.801 425.376 226.442C425.376 225.999 425.498 225.611 425.74 225.28C425.983 224.944 426.321 224.685 426.755 224.503C427.194 224.321 427.703 224.23 428.281 224.23C428.855 224.23 429.369 224.321 429.821 224.503C430.274 224.685 430.638 224.944 430.913 225.28C431.193 225.611 431.359 225.999 431.41 226.442L430.136 226.673C430.076 226.267 429.88 225.947 429.548 225.714C429.222 225.481 428.799 225.357 428.281 225.343C427.791 225.324 427.392 225.411 427.084 225.602C426.781 225.793 426.629 226.052 426.629 226.379C426.629 226.561 426.685 226.717 426.797 226.848C426.914 226.979 427.126 227.102 427.434 227.219C427.747 227.336 428.2 227.469 428.792 227.618C429.46 227.786 429.985 227.97 430.367 228.171C430.755 228.367 431.03 228.6 431.193 228.871C431.357 229.137 431.438 229.466 431.438 229.858C431.438 230.586 431.17 231.16 430.633 231.58C430.097 231.995 429.357 232.203 428.414 232.203Z" fill="white"/>
<defs>
<filter id="filter0_d_119_419" x="184.051" y="7.87988" width="69.5165" height="64.9121" filterUnits="userSpaceOnUse" color-interpolation-filters="sRGB">
<feFlood flood-opacity="0" result="BackgroundImageFix"/>
<feColorMatrix in="SourceAlpha" type="matrix" values="0 0 0 0 0 0 0 0 0 0 0 0 0 0 0 0 0 0 127 0" result="hardAlpha"/>
<feOffset dx="3" dy="3"/>
<feGaussianBlur stdDeviation="2.5"/>
<feComposite in2="hardAlpha" operator="out"/>
<feColorMatrix type="matrix" values="0 0 0 0 0.27493 0 0 0 0 0.347811 0 0 0 0 0.459936 0 0 0 1 0"/>
<feBlend mode="normal" in2="BackgroundImageFix" result="effect1_dropShadow_119_419"/>
<feBlend mode="normal" in="SourceGraphic" in2="effect1_dropShadow_119_419" result="shape"/>
</filter>
<filter id="filter1_dd_119_419" x="0" y="74.6802" width="162.823" height="98.7036" filterUnits="userSpaceOnUse" color-interpolation-filters="sRGB">
<feFlood flood-opacity="0" result="BackgroundImageFix"/>
<feColorMatrix in="SourceAlpha" type="matrix" values="0 0 0 0 0 0 0 0 0 0 0 0 0 0 0 0 0 0 127 0" result="hardAlpha"/>
<feOffset dx="3" dy="3"/>
<feGaussianBlur stdDeviation="2.5"/>
<feComposite in2="hardAlpha" operator="out"/>
<feColorMatrix type="matrix" values="0 0 0 0 0.27493 0 0 0 0 0.347811 0 0 0 0 0.459936 0 0 0 1 0"/>
<feBlend mode="normal" in2="BackgroundImageFix" result="effect1_dropShadow_119_419"/>
<feColorMatrix in="SourceAlpha" type="matrix" values="0 0 0 0 0 0 0 0 0 0 0 0 0 0 0 0 0 0 127 0" result="hardAlpha"/>
<feOffset dy="4"/>
<feGaussianBlur stdDeviation="2"/>
<feComposite in2="hardAlpha" operator="out"/>
<feColorMatrix type="matrix" values="0 0 0 0 0 0 0 0 0 0 0 0 0 0 0 0 0 0 0.25 0"/>
<feBlend mode="normal" in2="effect1_dropShadow_119_419" result="effect2_dropShadow_119_419"/>
<feBlend mode="normal" in="SourceGraphic" in2="effect2_dropShadow_119_419" result="shape"/>
</filter>
<filter id="filter2_d_119_419" x="152.212" y="81.4639" width="285.923" height="128.656" filterUnits="userSpaceOnUse" color-interpolation-filters="sRGB">
<feFlood flood-opacity="0" result="BackgroundImageFix"/>
<feColorMatrix in="SourceAlpha" type="matrix" values="0 0 0 0 0 0 0 0 0 0 0 0 0 0 0 0 0 0 127 0" result="hardAlpha"/>
<feOffset dx="3" dy="3"/>
<feGaussianBlur stdDeviation="2.5"/>
<feComposite in2="hardAlpha" operator="out"/>
<feColorMatrix type="matrix" values="0 0 0 0 0.27493 0 0 0 0 0.347811 0 0 0 0 0.459936 0 0 0 1 0"/>
<feBlend mode="normal" in2="BackgroundImageFix" result="effect1_dropShadow_119_419"/>
<feBlend mode="normal" in="SourceGraphic" in2="effect1_dropShadow_119_419" result="shape"/>
</filter>
</defs>
</svg>
